<?xml version="1.0" encoding="UTF-8" standalone="no"?>
<svg width="74px" height="62px" viewBox="0 0 74 62" version="1.1" xmlns="http://www.w3.org/2000/svg" xmlns:xlink="http://www.w3.org/1999/xlink">
    <!-- Generator: Sketch 40.3 (33839) - http://www.bohemiancoding.com/sketch -->
    <title>Page 1</title>
    <desc>Created with Sketch.</desc>
    <defs>
        <polygon id="path-1" points="65.1778518 0.240741463 0.207649393 0.240741463 0.207649393 61.6975307 65.1778518 61.6975307 65.1778518 0.240741463"></polygon>
    </defs>
    <g id="Page-1" stroke="none" stroke-width="1" fill="none" fill-rule="evenodd">
        <g id="new1-copy-3" transform="translate(-681.000000, -274.000000)">
            <g id="Group-13" transform="translate(570.000000, 274.000000)">
                <g id="Page-1" transform="translate(111.000000, 0.000000)">
                    <path d="M60.5860769,23.082479 L63.4322308,23.082479 C69.1245385,23.082479 73.7457935,18.4170546 73.7457935,12.6707132 C73.7457935,6.92467415 69.1245385,2.25924976 63.4322308,2.25924976 C57.7399231,2.25924976 53.1183684,6.92467415 53.1183684,12.6707132 L53.1183684,15.5438839 C53.0902065,19.697279 56.4435749,23.082479 60.5860769,23.082479" id="Fill-1" fill="#000000"></path>
                    <path d="M13.1598664,23.082479 L10.3137126,23.082479 C4.62140486,23.082479 0.000149797571,18.4170546 0.000149797571,12.6707132 C0.000149797571,6.92467415 4.62140486,2.25924976 10.3137126,2.25924976 C16.0060202,2.25924976 20.6275749,6.92467415 20.6275749,12.6707132 L20.6275749,15.5438839 C20.6557368,19.697279 17.3023684,23.082479 13.1598664,23.082479" id="Fill-3" fill="#000000"></path>
                    <path d="M52.3576664,56.6500351 L52.3576664,56.6500351 C42.9737474,60.9455766 32.0684842,61.0308644 22.6282413,56.8774693 L21.8109457,56.5078888 C12.286217,52.3544937 6.19934251,43.3366693 6.19934251,33.4656644 L6.19934251,31.0476644 C6.19934251,15.0888644 19.9510591,2.1169522 36.8871725,2.1169522 C53.8229862,2.1169522 67.5747028,15.0604351 67.5747028,31.0476644 L67.5747028,33.7502595 C67.5747028,43.5075473 61.6568,52.4113522 52.3576664,56.6500351" id="Fill-5" fill="#FFFFFF"></path>
                    <g id="Group-9" transform="translate(4.194332, 0.061698)">
                        <mask id="mask-2" fill="white">
                            <use xlink:href="#path-1"></use>
                        </mask>
                        <g id="Clip-8"></g>
                        <path d="M32.6927506,3.86997951 C16.7626777,3.86997951 3.80279109,16.0340771 3.80279109,30.9857551 L3.80279109,33.4037551 C3.80279109,42.5413454 9.50498543,50.9319112 18.3295603,54.7804478 L19.1690259,55.1600088 C28.1595765,59.1150039 38.462953,59.0366722 47.4208478,54.935599 L47.4235441,54.9343893 C56.0249206,51.0138722 61.5827101,42.6744185 61.5827101,33.6886527 L61.5827101,30.9860576 C61.5827101,16.0343795 48.6228235,3.86997951 32.6927506,3.86997951 M33.0393822,61.6975307 C27.8162405,61.6975307 22.5945968,60.6259893 17.7156899,58.4792771 L16.8813174,58.1021356 C6.76129312,53.6892478 0.207649393,43.9906332 0.207649393,33.4037551 L0.207649393,30.9857551 C0.207649393,14.032838 14.7802567,0.24071122 32.6927506,0.24071122 C50.6052445,0.24071122 65.1778518,14.0331405 65.1778518,30.9860576 L65.1778518,33.6886527 C65.1778518,44.097999 58.7895846,53.7358234 48.9029449,58.2421649 C43.8721433,60.5449356 38.4554632,61.6975307 33.0393822,61.6975307" id="Fill-7" fill="#000000" mask="url(#mask-2)"></path>
                    </g>
                    <path d="M15.2222794,21.7628468 C18.2296154,16.8878322 23.9354049,15.3580956 27.9670567,18.3458907 C31.9984089,21.3336859 32.828587,27.7078907 29.8215506,32.5829054 C26.8142146,37.45792 21.1081255,38.9876566 17.0767733,35.9998615 C13.0454211,33.0117639 12.2149433,26.6378615 15.2222794,21.7628468" id="Fill-10" fill="#000000"></path>
                    <path d="M51.5604138,52.8196449 L51.558017,52.8208546 C42.6339765,56.9055961 32.3695474,56.9839278 23.412851,53.0437522 L22.5805757,52.6672156 C13.7775717,48.8286595 8.0894583,40.4571473 8.0894583,31.339518 L8.0894583,33.72304 C8.0894583,42.8406693 13.7775717,51.2121815 22.5805757,55.0507376 L23.412851,55.4272741 C32.3695474,59.3674498 42.6339765,59.289118 51.558017,55.2043766 L51.5604138,55.2031668 C60.140519,51.2923278 65.6845271,42.9716254 65.6845271,34.005518 L65.6845271,31.6219961 C65.6845271,40.5881034 60.140519,48.9088059 51.5604138,52.8196449" id="Fill-12" fill="#E6E6E6"></path>
                    <path d="M40.9764964,41.1505493 L38.2501806,42.8744517 C37.4113142,43.388598 36.3627312,43.388598 35.5538243,42.8744517 L32.8275085,41.1505493 C32.0785206,40.6666468 31.6291279,39.8500615 31.6291279,38.9729883 C31.6291279,37.5515249 32.7675895,36.4022566 34.1756866,36.4022566 L39.6283182,36.4022566 C41.0364154,36.4022566 42.1748769,37.5515249 42.1748769,38.9729883 C42.1748769,39.8500615 41.7254842,40.6968907 40.9764964,41.1505493" id="Fill-14" fill="#000000"></path>
                    <path d="M36.9020024,49.5583239 C36.2401968,49.5583239 35.7036219,49.0166556 35.7036219,48.3485678 L35.7036219,42.08808 C35.7036219,41.4199922 36.2401968,40.8783239 36.9020024,40.8783239 C37.5638081,40.8783239 38.100383,41.4199922 38.100383,42.08808 L38.100383,48.3485678 C38.100383,49.0166556 37.5638081,49.5583239 36.9020024,49.5583239" id="Fill-16" fill="#000000"></path>
                    <path d="M36.9020024,46.447678 C39.0530955,46.447678 40.7967393,48.2078732 40.7967393,50.3793854 C40.7967393,52.5508976 39.0530955,54.3110927 36.9020024,54.3110927 C34.7509093,54.3110927 33.0072656,52.5508976 33.0072656,50.3793854 C33.0072656,48.2078732 34.7509093,46.447678 36.9020024,46.447678" id="Fill-18" fill="#000000"></path>
                    <path d="M20.8478073,23.8517932 C22.0015482,21.9812078 24.1909895,21.3944761 25.7377992,22.54072 C27.2846089,23.6872663 27.6030785,26.1327883 26.4493377,28.0033737 C25.2955968,29.8736566 23.1061555,30.4606907 21.5593457,29.3141444 C20.012536,28.1679005 19.6940664,25.7223785 20.8478073,23.8517932" id="Fill-20" fill="#FFFFFF"></path>
                    <path d="M58.5817255,21.7628468 C55.5743895,16.8878322 49.8686,15.3580956 45.8369482,18.3458907 C41.805596,21.3336859 40.9754178,27.7078907 43.9824543,32.5829054 C46.9897903,37.45792 52.6958794,38.9876566 56.7272316,35.9998615 C60.7585838,33.0117639 61.5890615,26.6378615 58.5817255,21.7628468" id="Fill-22" fill="#000000"></path>
                    <path d="M52.9562275,23.8517932 C51.8024866,21.9812078 49.6130453,21.3944761 48.0662356,22.54072 C46.5194259,23.6872663 46.2009563,26.1327883 47.3546972,28.0033737 C48.5084381,29.8736566 50.6978794,30.4606907 52.2446891,29.3141444 C53.7914988,28.1679005 54.1099684,25.7223785 52.9562275,23.8517932" id="Fill-24" fill="#FFFFFF"></path>
                </g>
            </g>
        </g>
    </g>
</svg>