<svg xmlns="http://www.w3.org/2000/svg" viewBox="0 0 373.9547 62.5178"><defs><style>.a{fill:#fff;}.b{fill:#f26a6c;}</style></defs><path class="a" d="M373.9547,13.6342H57.0743a31.259,31.259,0,1,0,0,35.2493h316.88Z"/><circle class="b" cx="31.2588" cy="31.2589" r="13.4229"/><path d="M80.4474,31.2477a7.4019,7.4019,0,0,1,7.7007-7.5909,6.8989,6.8989,0,0,1,5.9189,3.0586l-2.1123,1.1885a4.6719,4.6719,0,0,0-3.8066-1.959,5.0275,5.0275,0,0,0-5.0605,5.3028,5.046,5.046,0,0,0,5.0605,5.3251,5.38,5.38,0,0,0,3.4766-1.32V32.9644H87.2462V30.6978h6.9532v5.501a7.96,7.96,0,0,1-6.0513,2.6621A7.42,7.42,0,0,1,80.4474,31.2477Z"/><path d="M112.8542,38.5748l-3.2564-5.4785h-2.5522v5.4785h-2.5747V23.899h6.4472a4.4551,4.4551,0,0,1,4.7964,4.5987,4.1157,4.1157,0,0,1-3.4761,4.3125l3.5865,5.7646Zm.22-10.0771a2.3136,2.3136,0,0,0-2.5083-2.3321h-3.5205V30.83h3.5205A2.3136,2.3136,0,0,0,113.0744,28.4977Z"/><path d="M136.1525,38.5748l-1.0781-2.8164H128.341l-1.0782,2.8164h-2.9262l5.7646-14.6758h3.2129l5.7647,14.6758Zm-4.4448-12.0791-2.64,6.9971h5.28Z"/><path d="M150.3415,38.5748V26.1656h-4.4444V23.899h11.4634v2.2666h-4.4443V38.5748Z"/><path d="M167.1266,38.5748V23.899h2.5747V38.5748Z"/><path d="M179.4684,36.5064l1.43-1.98a6.3269,6.3269,0,0,0,4.6426,2.0244c2.1123,0,2.9482-1.0342,2.9482-2.002,0-3.08-8.5586-1.166-8.5586-6.5791,0-2.42,2.1338-4.29,5.3467-4.29a7.6344,7.6344,0,0,1,5.5,2.0459l-1.4736,1.9141a5.97,5.97,0,0,0-4.2471-1.6719c-1.5176,0-2.4863.7256-2.4863,1.8261,0,2.7286,8.5371,1.0342,8.5371,6.5127,0,2.4424-1.7159,4.5332-5.6768,4.5332A7.85,7.85,0,0,1,179.4684,36.5064Z"/><path d="M200.4123,31.2477a7.5034,7.5034,0,1,1,15.0058,0,7.5034,7.5034,0,1,1-15.0058,0Zm12.3652,0c0-3.0362-1.9141-5.3028-4.8623-5.3028-2.9707,0-4.8623,2.2666-4.8623,5.3028,0,3.0146,1.8916,5.3027,4.8623,5.3027C210.8634,36.55,212.7775,34.2623,212.7775,31.2477Z"/><path d="M224.8322,31.2477a7.402,7.402,0,0,1,7.7012-7.5909,6.9,6.9,0,0,1,5.9189,3.0586L236.34,27.9039a4.6728,4.6728,0,0,0-3.8066-1.959,5.0276,5.0276,0,0,0-5.0606,5.3028,5.046,5.046,0,0,0,5.0606,5.3251,5.3812,5.3812,0,0,0,3.4765-1.32V32.9644H231.631V30.6978h6.9531v5.501a7.96,7.96,0,0,1-6.0507,2.6621A7.42,7.42,0,0,1,224.8322,31.2477Z"/><path d="M257.2394,38.5748l-3.2559-5.4785h-2.5527v5.4785h-2.5742V23.899h6.4463A4.4549,4.4549,0,0,1,260.1,28.4977a4.1154,4.1154,0,0,1-3.4766,4.3125l3.5869,5.7646Zm.22-10.0771a2.3132,2.3132,0,0,0-2.5078-2.3321h-3.52V30.83h3.52A2.3132,2.3132,0,0,0,257.4591,28.4977Z"/><path d="M280.5382,38.5748,279.46,35.7584h-6.7334l-1.0781,2.8164h-2.9258l5.7647-14.6758h3.2119l5.7646,14.6758Zm-4.4453-12.0791-2.64,6.9971h5.28Z"/><path d="M292.6584,38.5748V23.899h6.4462a4.6027,4.6027,0,1,1,0,9.1973h-3.872v5.4785Zm8.6025-10.0771a2.3132,2.3132,0,0,0-2.5078-2.3321h-3.5205V30.83h3.5205A2.3132,2.3132,0,0,0,301.2609,28.4977Z"/><path d="M323.8332,38.5748V32.1725h-7.6348v6.4023h-2.5742V23.899h2.5742v6.0069h7.6348V23.899h2.5742V38.5748Z"/><path d="M341.2775,38.5748V32.48l-5.6983-8.5811h2.9483l4.0478,6.293,4.0049-6.293h2.9483L343.8517,32.48v6.0947Z"/></svg>
