<svg width="93" height="28" viewBox="0 0 93 28" fill="none" xmlns="http://www.w3.org/2000/svg">
<g clip-path="url(#clip0_4551_85301)">
<path d="M0 7.29524C0 18.7297 9.29619 28 20.7596 28H28.0755V20.7048C28.0755 9.27035 18.7793 0 7.31585 0H0V7.29524Z" fill="url(#paint0_linear_4551_85301)"/>
<path d="M11.9512 21.875C20.8458 21.875 28.0593 14.4963 28.0593 5.64708V0H22.3824C13.4865 0 6.14148 7.17562 6.14148 16.0236V21.875H11.9512Z" fill="url(#paint1_linear_4551_85301)"/>
</g>
<path d="M92.9258 13.7338V11.9702H89.9322C90.5531 10.0303 91.0742 8.04628 91.4733 6.04022L89.8102 5.4891L89.1783 8.80682C88.9122 10.0193 88.6572 11.0774 88.3911 11.9702H83.8231V13.7338H87.3045V18.3521H84.4551V20.1488H87.3045V27.7431H89.145V20.1488H92.6264V18.3521H89.145V13.7338H92.9258ZM67.2919 11.6395L68.833 11.1876C68.6113 9.44611 68.2565 7.61641 67.7687 5.68751L66.3162 6.13942C66.7154 7.88094 67.0369 9.71064 67.2919 11.6395ZM83.0026 10.1736C82.9361 8.59739 82.9139 6.19453 82.9139 2.965L83.8563 2.77762C84.0005 2.75557 84.1114 2.72251 84.2222 2.68944L83.6346 0.992007C80.9958 1.62028 77.9912 2.1273 74.6206 2.51308V7.61641C74.6206 8.7517 74.6095 9.73269 74.5874 10.5704C74.5874 11.5844 74.5652 12.4993 74.5319 13.337C74.4321 15.1997 74.2547 16.8531 74.0219 18.286C73.4564 21.5265 72.3366 24.3483 70.6624 26.7401L72.2368 27.8974C73.9665 25.219 75.1195 22.0887 75.685 18.5064C75.9511 16.9302 76.1174 15.0785 76.195 12.9732C76.2505 12.0584 76.2837 11.0333 76.2837 9.89802C76.3059 8.96113 76.317 7.84788 76.317 6.55827V4.00109L77.7694 3.81371L77.8027 25.4284L77.0266 25.5607C77.0266 25.5607 77.1485 26.3653 77.2372 27.0046C77.8581 26.8944 80.5302 26.0677 81.1621 25.7481C81.2619 26.2772 81.3728 26.7291 81.4615 27.4676L82.9139 26.9826C82.9139 26.9826 81.5835 22.0887 81.2619 20.9865L80.2086 21.262C80.5523 22.6398 80.7852 23.6098 80.9404 24.4695C80.4082 24.723 79.7651 24.9324 79.4547 24.9875L79.4879 3.59327C80.1532 3.49407 80.7297 3.39487 81.2065 3.29567C81.2841 8.90602 81.4615 13.0173 81.7165 15.6406C82.16 20.5235 83.1135 24.5577 84.5881 27.7431L86.096 26.7401C84.7212 24.0837 83.812 20.281 83.3685 15.31C83.1911 13.4472 83.0581 11.7387 83.0026 10.1736ZM87.5373 3.58225H83.7566V5.31275H92.5599V3.58225H89.2891L89.1117 2.78864C89.0452 2.46899 88.9898 2.19344 88.9343 1.97299C88.7791 1.34472 88.5906 0.749516 88.3911 0.176357L86.6282 0.661338L87.1493 2.18242L87.5373 3.58225ZM73.9554 3.58225H70.9618C70.8177 2.95398 70.6735 2.39184 70.5405 1.88481C70.3631 1.21245 70.1635 0.584182 69.9639 0L68.2676 0.551115L68.7887 2.10526C68.9439 2.6674 69.077 3.1634 69.1768 3.59327H65.4292V5.32377H73.9665V3.58225H73.9554ZM73.5008 18.0215H70.4407L70.5294 16.5334C70.5516 16.1697 70.5848 15.1777 70.6181 13.5574H73.8223V11.7939H71.3499C71.9153 9.90905 72.3921 7.98014 72.769 6.01817L71.0727 5.56626C70.6735 7.93605 70.2411 10.0082 69.7976 11.7939H65.0744V13.5574H68.7998C68.7998 14.9352 68.7887 15.8831 68.7665 16.4122C68.7665 16.6547 68.7554 16.9082 68.7333 17.1727L68.6667 18.0215H65.3405V19.8181H68.5226C68.2565 21.3722 67.935 22.5626 67.558 23.3673C67.0923 24.3813 66.3273 25.3513 65.2629 26.2882L66.7154 27.7431C67.8684 26.5858 68.7111 25.3513 69.2544 24.0396C69.4983 23.4555 69.6978 22.7941 69.8642 22.0666C70.0083 21.4604 70.1524 20.7109 70.2855 19.8181H73.4897V18.0215H73.5008ZM84.5992 6.04022C84.7988 6.83382 84.9983 7.7597 85.209 8.83988L85.4529 10.2948C85.4751 10.4822 85.5084 10.7137 85.5749 11.0223C85.6303 11.364 85.6747 11.6065 85.6968 11.7498L87.238 11.2979C87.0384 10.2066 86.8499 9.26975 86.6947 8.49819C86.4951 7.4621 86.2734 6.50316 86.0295 5.61035L84.5992 6.04022ZM54.4972 0.176357H52.5569V3.79167H44.8512V0.176357H42.9109V3.79167H35.5268V5.76466H42.9109V8.80682H43.6316C42.5783 10.5704 41.3143 12.3119 39.8176 14.0314C38.4871 15.5745 36.9127 17.1727 35.0944 18.8371L36.4581 20.4243C37.2675 19.7189 38.099 18.9032 38.9638 17.9884L41.5472 15.332V27.9856H43.5207V13.1165C44.1416 12.0694 44.6294 11.3309 45.4388 9.63349L44.0418 8.81784H44.829V5.76466H52.5458V8.88397H54.4972V5.76466H61.848V3.79167H54.4972V0.176357ZM59.9854 24.2491C59.8412 25.0978 59.4643 25.5607 58.3112 25.5607H53.6323C52.9893 25.5607 52.2243 24.9875 52.2243 23.5767V18.4072C55.9607 16.8421 58.7436 14.7478 60.95 12.9071L59.8745 11.2868C58.5662 12.5213 54.9185 15.1557 52.2132 16.335V8.87295H50.2174V16.9413L46.9245 18.0325L47.4567 19.8181L50.2174 18.8812V24.1609C50.2174 26.2441 51.7364 27.3463 53.5658 27.3463H58.5108C59.8634 27.3463 61.3602 26.7952 61.6485 24.9104C61.7704 24.1058 61.7704 23.0256 61.7704 22.1879L60.1184 21.3281C60.0962 22.8382 60.1406 23.3122 59.9854 24.2491Z" fill="#FF5967"/>
<defs>
<linearGradient id="paint0_linear_4551_85301" x1="21.9456" y1="6.05599" x2="6.02067" y2="21.9823" gradientUnits="userSpaceOnUse">
<stop stop-color="#FF6673" stop-opacity="0.8"/>
<stop offset="1" stop-color="#FF598B" stop-opacity="0.24"/>
</linearGradient>
<linearGradient id="paint1_linear_4551_85301" x1="28.0746" y1="4.12748e-07" x2="6.41891" y2="21.5691" gradientUnits="userSpaceOnUse">
<stop stop-color="#FF6673"/>
<stop offset="1" stop-color="#FF598B" stop-opacity="0.36"/>
</linearGradient>
<clipPath id="clip0_4551_85301">
<rect width="28.0755" height="28" fill="white"/>
</clipPath>
</defs>
</svg>
