<?xml version="1.0" encoding="utf-8"?>
<!-- Generator: Adobe Illustrator 18.0.0, SVG Export Plug-In . SVG Version: 6.00 Build 0)  -->
<!DOCTYPE svg PUBLIC "-//W3C//DTD SVG 1.1//EN" "http://www.w3.org/Graphics/SVG/1.1/DTD/svg11.dtd">
<svg version="1.1" id="Layer_1" xmlns="http://www.w3.org/2000/svg" xmlns:xlink="http://www.w3.org/1999/xlink" x="0px" y="0px"
	 width="250.9px" height="120px" viewBox="0 0 250.9 120" enable-background="new 0 0 250.9 120" xml:space="preserve">
<g>
	<g>
		<path fill="#4C4C4C" d="M69.8,14.9c1.7-0.5,3.4-1.1,5.1-1.6c-0.5-1.7-1.1-3.3-1.6-5c3-0.9,5.9-1.8,8.8-2.8c0.5,1.6,1,3.2,1.5,4.8
			c0.1,0,0.1,0,0.2,0c0.5-1.6,1-3.2,1.6-4.9c5.4,2,9.4,5.5,11.6,10.7c2.9,6.8,2.2,13.4-2,19.7c-1.4-1.1-2.8-2.1-4.3-3.2
			c0.6,1.8,1.1,3.4,1.6,5.1c-3,0.9-5.9,1.8-8.8,2.8c-0.5-1.7-1.1-3.3-1.6-5.1c-1.7,0.5-3.4,1.1-5.1,1.6
			C74.4,29.6,72.1,22.3,69.8,14.9z M84.4,30.6c1.1-0.3,2.1-0.7,3.2-1c0.4-0.1,0.7-0.3,0.9-0.7c2.4-4.5,0.8-10.5-3.5-13.4
			c-0.9-0.6-1.7-0.9-2.7-0.4c-0.6,0.3-1.3,0.4-2,0.6c-0.1,0-0.3,0.1-0.4,0.2C81.3,20.8,82.9,25.7,84.4,30.6z"/>
		<path fill="#4C4C4C" d="M126.2,33.6c-5.3,0.6-10.6,1.2-16,1.8c-0.2-1.8-0.4-3.5-0.6-5.3c-1.8,0.2-3.5,0.4-5.3,0.6
			c-0.9-7.7-1.7-15.3-2.6-23c1.7-0.2,3.5-0.4,5.2-0.6c-0.2-1.8-0.4-3.5-0.6-5.3c5.4-0.6,10.7-1.2,16-1.8c0.3,3,0.7,6,1,9.1
			c-4,0.5-8.1,0.9-12.1,1.4c0.1,1,0.2,2,0.3,3.1c4-0.5,8-0.9,12.1-1.4c0.3,3.1,0.7,6.1,1,9.2c-4,0.5-8.1,0.9-12.1,1.4
			c0.1,1.1,0.2,2,0.4,3.1c4-0.5,8.1-0.9,12.1-1.4C125.5,27.5,125.8,30.5,126.2,33.6z"/>
		<path fill="#4C4C4C" d="M140.6,1.1c0.8,1.5,1.6,3,2.5,4.7c0.2-1.8,0.7-5.3,0.7-5.3l0.5,0.1c0,0,3.8,0.5,5.8,0.7
			c0.2,0,0.5,0.1,0.5,0.1s0,0.3-0.1,0.5c-0.4,2.7-0.7,5.5-1.1,8.2c0,0.1-0.1,0.5-0.1,0.5s-2.5-0.3-3.7-0.5c-2-0.3-2-0.3-3.3,1.2
			c-3.4,3.7-3.7,9.4-0.7,13.4c0.2,0.3,0.5,0.5,0.9,0.5c1.4,0.2,2.8,0.3,4.1,0.5c0.2,0,0.4,0.1,0.7,0.1c-0.4,3.1-0.8,6.1-1.2,9.1
			c-2.3-0.3-4.5-0.6-6.7-0.9c0.2-1.7,0.4-3.4,0.6-5l-0.1-0.1c-1.2,1.2-2.3,2.5-3.5,3.7c-4.1-4.1-6.2-9-6.1-14.7
			C130.6,10.6,135,4.2,140.6,1.1z"/>
		<g>
			<path fill="#4C4C4C" d="M157.2,37.8c-2.2-2.2-4.3-4.4-6.5-6.5c4.3-4.3,12.9-12.9,12.9-12.9l3.3-3.4c0,0,5.1-5.1,7.6-7.6
				c2.2,2.2,4.3,4.3,6.5,6.5c-4,4-8,8-12,12V26c1.7-0.3,3.4-0.6,5.1-0.9c0.8,4.6,1.5,8,2.3,12.6c-3,0.5-6,1.1-9.1,1.6
				c-0.6-3.7-1.2-6.2-1.9-10C162.7,32.3,160,35,157.2,37.8z"/>
			<path fill="#4C4C4C" d="M158.6,2.8c3,0.8,5.9,1.6,8.8,2.4c-2.9,10.9-3.8,12.5-6.7,23.4c-2.9-0.8-5.9-1.6-8.8-2.4
				C154.8,15.4,155.6,13.7,158.6,2.8z"/>
		</g>
	</g>
	<g>
		<path fill="#4C4C4C" d="M117.4,44.1c0,1.7,0,3.4,0,5.1c0,0,0.1,0,0.1,0.1c1-1.4,2-2.7,3.1-4.2c4.6,3.6,7.4,8.2,7.9,14
			c0.6,7.3-2.2,13.2-7.9,17.9c-1.1-1.5-2.1-2.8-3.1-4.2h-0.1c0,1.7,0,3.4,0,5.1c-2.3,0-4.6,0-6.9,0c0-1.7,0-3.4,0-5.1
			c-0.1,0-0.1,0-0.2-0.1c-1,1.4-2,2.8-3,4.1c-10-6.9-11.4-23.3,0-31.7c1,1.4,2,2.7,3,4.1h0.1c0-1.7,0-3.4,0-5.1
			C112.8,44.1,115.1,44.1,117.4,44.1z M113.9,68.6c0.5,0,1,0,1.5,0c0.3,0,0.7-0.2,0.9-0.4c4-4.2,4-10.5-0.1-14.6
			c-0.2-0.2-0.5-0.3-0.7-0.3c-1.1,0-2.2,0-3.3,0c-0.2,0-0.6,0.1-0.7,0.3c-3.8,3.9-4.1,10-0.6,14.2c0.5,0.6,1.1,1.1,2,0.9
			C113.3,68.6,113.6,68.6,113.9,68.6z"/>
		<path fill="#4C4C4C" d="M151.5,53.2c-3.3,0-6.6,0-9.9,0c0,1.5,0,3,0,4.6c3.3,0,6.6,0,9.9,0c0,3.1,0,6.1,0,9.2c-3.3,0-6.6,0-9.9,0
			c0,3.6,0,7.2,0,10.7c-3.1,0-6.1,0-9.2,0c0-9.5,0-18.9,0-28.4c1.8,0,3.5,0,5.3,0c0-1.8,0-3.5,0-5.3c4.6,0,9.1,0,13.7,0
			C151.5,47.1,151.5,50.1,151.5,53.2z"/>
	</g>
	<g>
		<path fill="#4C4C4C" d="M0,89.2c1.8,0,3.5,0,5.3,0c0-1.8,0-3.6,0-5.4c5.7,0,11.2,0,16.9,0c0,1.3,0.1,2.5,0,3.7s0.3,2,1.3,2.6
			c1.1,0.6,2,1.4,3.1,2.1c-2,2.8-3.9,5.6-5.9,8.4c2,2.8,3.9,5.6,5.9,8.5c-1.4,1-2.7,1.9-4,2.8c-0.3,0.2-0.4,0.4-0.4,0.8
			c0,1.6,0,3.2,0,4.8c-5.6,0-11.2,0-16.9,0c0-1.7,0-3.5,0-5.3c-1.8,0-3.6,0-5.4,0C0,104.6,0,97,0,89.2z M9.3,108.4
			c1.8,0,3.7,0,5.6,0c-1.1-1.6-2.1-3-3.2-4.5c1.5-1.1,2.9-2.1,4.4-3.1c-1.5-1.1-2.9-2.1-4.4-3.1c1.1-1.5,2.1-3,3.2-4.6
			c-1.9,0-3.7,0-5.6,0C9.3,98.2,9.3,103.3,9.3,108.4z"/>
		<path fill="#4C4C4C" d="M57.2,114.6c-2.5,1.8-5,3.6-7.5,5.4c-1-1.3-1.9-2.6-2.9-3.9c-1.4-1.9-2.7-3.8-4.1-5.6
			c-0.1-0.2-0.4-0.3-0.7-0.3c-0.7,0-1.4,0-2.2,0c0,2.6,0,5.1,0,7.7c-3.1,0-6.1,0-9.2,0c0-9.4,0-18.9,0-28.4c1.7,0,3.5,0,5.3,0
			c0-1.8,0-3.6,0-5.4c3.1,0,6.1,0,9.2,0c0,1.7,0,3.4,0,5c0.1,0,0.1,0,0.2,0.1c1-1.4,2-2.7,3-4.1c5.6,3.8,8.9,13.4,2.9,21.4
			C53.2,109,55.2,111.8,57.2,114.6z M40,100.8c1.1,0,2.2,0,3.3,0c0.4,0,0.7-0.2,1-0.5c1.5-2,1.4-5-0.2-6.9c-0.1-0.1-0.2-0.3-0.4-0.3
			c-1.2,0-2.5,0-3.7,0C40,95.7,40,98.2,40,100.8z"/>
		<path fill="#4C4C4C" d="M60.4,83.9c3.1,0,6.1,0,9.1,0c0,11.2,0,22.5,0,33.8c-3,0-6.1,0-9.1,0C60.4,106.4,60.4,95.2,60.4,83.9z"/>
		<path fill="#4C4C4C" d="M163.2,118.2c-0.5-1.4-1-2.8-1.5-4.2c-1.4,0.5-2.7,1-4.2,1.5c-0.6-1.6-1.2-3.3-1.8-5
			c-0.6,1.8-1.2,3.4-1.9,5c-1.4-0.5-2.7-1-4.2-1.5c-0.5,1.4-1,2.8-1.5,4.2c-2.9-1.1-5.7-2.1-8.6-3.2c3.7-10.2,7.4-20.4,11.1-30.7
			c1.3,0.5,2.6,0.9,3.9,1.4c0.8,0.4,1.5,0.4,2.4,0c1.2-0.5,2.5-0.9,3.9-1.4c3.7,10.2,7.4,20.4,11.1,30.7
			C169,116.1,166.2,117.2,163.2,118.2z M152.8,105.4c0.6,0.2,1.3,0.4,1.8,0.7c1.5,0.8,2.6-0.4,4-0.6c-1-2.6-1.9-5.2-2.9-7.9
			C154.7,100.2,153.8,102.7,152.8,105.4z"/>
		<path fill="#4C4C4C" d="M81.3,118.2c0-1.8,0-3.5,0-5.3c-1.8,0-3.6,0-5.3,0c0-9.5,0-18.9,0-28.4c3.1,0,6.1,0,9.2,0
			c0,8.2,0,16.3,0,24.6c3.9,0,7.7,0,11.5,0c0,3.1,0,6.1,0,9.2C91.5,118.2,86.4,118.2,81.3,118.2z"/>
		<path fill="#4C4C4C" d="M100,112.8c0-9.5,0-18.9,0-28.4c3.1,0,6.1,0,9.2,0c0,8.2,0,16.3,0,24.6c3.9,0,7.7,0,11.5,0
			c0,3.1,0,6.1,0,9.2c-5.1,0-10.2,0-15.3,0c0-1.8,0-3.5,0-5.3C103.6,112.8,101.8,112.8,100,112.8z"/>
		<path fill="#4C4C4C" d="M135.3,118.2c-3.1,0-6.1,0-9.1,0c0-11.3,0-22.5,0-33.8c3,0,6.1,0,9.1,0
			C135.3,95.7,135.3,106.9,135.3,118.2z"/>
		<path fill="#4C4C4C" d="M175.1,117.6c0-10.5,0-20.9,0-31.4c0.2,0,0.4,0,0.5,0c1,0,1.9-0.1,2.9,0c1.4,0.1,2.7-0.2,3.9-0.9
			c0.9-0.5,1.9-0.9,2.9-1.4c2.8,5.7,5.6,11.3,8.3,17h0.1c0-5.6,0-11.2,0-16.9c3.1,0,6.1,0,9.2,0c0,11.2,0,22.5,0,33.8
			c-1.6,0-3.1,0-4.7,0c-0.4,0-0.9,0.1-1.3,0.3c-1.4,0.6-2.7,1.3-4.2,2c-2.8-5.7-5.6-11.3-8.4-17h-0.1c0,4.9,0,9.7,0,14.6
			C181.2,117.6,178.2,117.6,175.1,117.6z"/>
		<path fill="#4C4C4C" d="M234.7,117.5c0-1.8,0-3.6,0-5.4c-0.8,0-1.5,0-2.3,0c-0.9,0-1.7,0-2.6,0c-0.4,0-0.5-0.1-0.5-0.5
			c0,0,0,0,0-0.1c0-7.3,0-14.7,0-22c0-0.1,0-0.3,0-0.5c1.8,0,3.5,0,5.3,0c0-1.8,0-3.5,0-5.3c5.4,0,10.7,0,16.1,0c0,3,0,6.1,0,9.1
			c-4.1,0-8.1,0-12.2,0c0,1,0,2,0,3.1c4,0,8.1,0,12.2,0c0,3.1,0,6.1,0,9.2c-4.1,0-8.1,0-12.2,0c0,1.1,0,2.1,0,3.1
			c4.1,0,8.1,0,12.2,0c0,3.1,0,6.1,0,9.2C245.5,117.5,240.2,117.5,234.7,117.5z"/>
		<path fill="#4C4C4C" d="M224.9,108.4c0,3.1,0,6.1,0,9.2c-2.3,0-4.5,0-6.8,0c0-1.7,0-3.4,0-5.1c0,0-0.1,0-0.1-0.1
			c-1,1.4-2,2.7-3,4.2c-4.9-3.7-7.6-8.7-8-14.7c-0.4-7,2.5-12.6,7.9-17.1c1,1.4,2,2.8,3.1,4.3c0-1.8,0-3.5,0-5.2c2.3,0,4.6,0,6.9,0
			c0,3,0,6,0,9.1c-0.2,0-0.4,0-0.6,0c-1.4,0-2.9,0-4.3,0c-0.3,0-0.6,0.1-0.8,0.3c-4,4.1-4,10.7,0.1,14.7c0.2,0.2,0.5,0.3,0.7,0.3
			C221.5,108.4,223.2,108.4,224.9,108.4z"/>
	</g>
	<g>
		<path fill="#4C4C4C" d="M50.6,37.3c1.4-0.8,2.7-1.6,4-2.4c-1.4-0.8-2.7-1.6-4-2.4c0.6-1.1,1.3-2.2,1.9-3.3c1.3,0.8,2.6,1.5,4,2.3
			c0-1.5,0-2.8,0-4.2c1.3,0,2.6,0,3.9,0c0,1.4,0,2.8,0,4.2c1.4-0.8,2.7-1.6,4.1-2.3c0.6,1.1,1.3,2.2,1.9,3.3
			c-1.4,0.8-2.7,1.5-4.1,2.4c1.4,0.8,2.7,1.6,4.1,2.4c-0.6,1.1-1.3,2.2-1.9,3.3c-1.3-0.8-2.6-1.5-4-2.3c0,1.5,0,2.8,0,4.3
			c-1.3,0-2.6,0-3.9,0c0-1.4,0-2.8,0-4.3c-1.4,0.8-2.7,1.5-4.1,2.3C51.9,39.5,51.3,38.4,50.6,37.3z"/>
		<path fill="#4C4C4C" d="M184.4,37.3c1.4-0.8,2.7-1.6,4-2.4c-1.4-0.8-2.7-1.6-4-2.4c0.6-1.1,1.3-2.2,1.9-3.3c1.3,0.8,2.6,1.5,4,2.3
			c0-1.5,0-2.8,0-4.2c1.3,0,2.6,0,3.9,0c0,1.4,0,2.8,0,4.2c1.4-0.8,2.7-1.6,4.1-2.3c0.6,1.1,1.3,2.2,1.9,3.3
			c-1.4,0.8-2.7,1.5-4.1,2.4c1.4,0.8,2.7,1.6,4.1,2.4c-0.6,1.1-1.3,2.2-1.9,3.3c-1.3-0.8-2.6-1.5-4-2.3c0,1.5,0,2.8,0,4.3
			c-1.3,0-2.6,0-3.9,0c0-1.4,0-2.8,0-4.3c-1.4,0.8-2.7,1.5-4.1,2.3C185.7,39.5,185.1,38.4,184.4,37.3z"/>
	</g>
</g>
</svg>
