<svg xmlns="http://www.w3.org/2000/svg"
     width="209" height="33.2" viewBox="0 0 209 33.2">
    <path fill="rgb(255, 255, 255)" d="M0,.67H26.73V7.46H16.89V32.52H9.79V7.46H0ZM41.92,9.61a8.37,8.37,0,0,0-5.71,2V0H29.39V32.52h6.82V19.41a3.61,3.61,0,0,1,3.69-3.6c2.47,0,3.64,1.67,3.64,3.87V32.52h6.83v-14C50.37,13.61,47.76,9.61,41.92,9.61ZM75.87,21a13.25,13.25,0,0,1-.14,2.11H60.19a4.83,4.83,0,0,0,5.08,4.31,4.3,4.3,0,0,0,4.49-2.92l5.7,1.62c-1.07,3.86-4.62,7.1-10.28,7.1-6.16,0-11.64-4.4-11.64-11.91,0-7.18,5.35-11.77,11.14-11.77C71.6,9.52,75.87,13.79,75.87,21Zm-6.6-2.29c-.09-1.71-1.26-3.78-4.5-3.78a4.25,4.25,0,0,0-4.44,3.78Zm46.63-2.07c0,9.84-6.43,15.9-16,15.9H88.36V.67H99.9C109.47.67,115.9,6.78,115.9,16.62Zm-7.42,0c0-6.38-4-9.25-8.89-9.25H95.46V25.83h4.13C104.49,25.83,108.48,23,108.48,16.62Zm17.75-3.41v-3h-6.6V32.52h6.83V22.78c0-4.45,2.47-6.07,5.21-6.07a9.22,9.22,0,0,1,2.15.23V10.2A6.49,6.49,0,0,0,132,10C130.23,10,127.4,10.69,126.23,13.21Zm32-3h-6.83V22.91a3.56,3.56,0,0,1-3.73,3.82c-2.43,0-3.6-1.71-3.6-3.86V10.2h-6.82V24.3c0,4.77,3.05,8.72,8.49,8.72,2.24,0,4.8-.81,6-2.74a16.13,16.13,0,0,0,.18,2.24h6.56a36.45,36.45,0,0,1-.22-4Zm30.93-.68A7.65,7.65,0,0,0,182.25,13c-1.12-2.2-3.41-3.51-6.6-3.51-2.43,0-5.3,1.26-6.43,3.24V10.2h-6.51V32.52h6.83V19.68a3.63,3.63,0,0,1,3.68-3.87c2.47,0,3.6,1.67,3.6,3.78V32.52h6.74V19.63a3.63,3.63,0,0,1,3.72-3.82c2.43,0,3.55,1.67,3.55,3.78V32.52h6.61V18.06C197.44,12,193.39,9.52,189.17,9.52Zm11.65,19.41v.46H202v3.07h.52V29.39h1.14v-.46Zm6.41,0-1.11,2.7-1.1-2.7h-.8v3.53h.52v-3h0l1.19,3h.34l1.19-3h0v3H208V28.93Z"/>
</svg>