<?xml version="1.0" encoding="UTF-8"?>
<svg width="131px" height="48px" viewBox="0 0 131 48" version="1.1" xmlns="http://www.w3.org/2000/svg" xmlns:xlink="http://www.w3.org/1999/xlink">
    <title>镝数聚绿</title>
    <g id="控件" stroke="none" stroke-width="1" fill="none" fill-rule="evenodd">
        <g id="底部栏" transform="translate(-125.000000, -28.000000)">
            <g id="编组-4" transform="translate(125.000000, 28.000000)">
                <g id="镝数聚绿" transform="translate(0.000000, -0.000000)">
                    <g id="编组" transform="translate(51.007378, 5.214141)">
                        <path d="M78.1166155,12.1035936 L78.1486477,12.1047495 C78.2548683,12.11243 78.354948,12.158133 78.4306489,12.2342539 L78.4306489,12.2342539 L78.4524028,12.257809 C78.5218418,12.3386596 78.5602766,12.44222 78.5598641,12.5497094 L78.5598641,12.5497094 L78.5598641,13.5742881 L78.5591087,13.6004095 C78.5456337,13.8337772 78.352766,14.0188703 78.1166155,14.0188703 L78.1166155,14.0188703 L68.6630428,14.0188703 L68.6630428,23.031666 L68.6622918,23.0578051 C68.6488372,23.2913422 68.4562533,23.4769 68.2199545,23.4779351 L68.2199545,23.4779351 L67.2299197,23.4779351 L67.2038663,23.4770677 C66.971119,23.4625516 66.7868315,23.2685699 66.7868315,23.031666 L66.7868315,23.031666 L66.7868315,14.0188703 L56.6460418,14.0188703 L56.6199873,14.0181155 C56.3872196,14.0045926 56.2026463,13.811044 56.2026463,13.5742881 L56.2026463,13.5742881 L56.2026463,12.5497094 L56.2033973,12.5235545 C56.2168522,12.2898803 56.4094468,12.104333 56.6460418,12.1035936 L56.6460418,12.1035936 L78.1166155,12.1035936 Z M16.3657282,0.144041464 L16.3916523,0.144794466 C16.6232566,0.158286068 16.8069728,0.351385718 16.8069728,0.587550151 L16.8069728,0.587550151 L16.8069728,1.74554949 L23.5056861,1.74554949 L23.5376338,1.74708144 C23.6435679,1.75601326 23.7432921,1.80293292 23.8178758,1.8798903 L23.8178758,1.8798903 L23.8394057,1.90379948 C23.9080507,1.98575737 23.9452448,2.08971067 23.9437934,2.19733946 L23.9437934,2.19733946 L23.9437934,3.18802622 L23.9428832,3.21411254 C23.9284247,3.44714413 23.7358778,3.63138155 23.5006161,3.63138155 L23.5006161,3.63138155 L21.985451,3.63138155 L20.7465248,6.5031463 L21.1146383,6.5031463 L21.1682447,6.51194935 C22.5931279,6.75905689 23.6454594,7.99176269 23.6671582,9.45005602 L23.6671582,9.45005602 L23.6671582,20.3690803 L23.6661326,20.4215939 C23.6214274,22.0111441 22.3428751,23.2913563 20.7549748,23.3244247 L20.7549748,23.3244247 L19.9022912,23.3244247 L19.9022912,21.445187 L20.7549748,21.445187 L20.8016856,21.4439362 C21.0656268,21.4309438 21.3157572,21.3180029 21.5013418,21.1268177 L21.5013418,21.1268177 L21.5332116,21.0924847 C21.7090861,20.8943326 21.8043048,20.6360154 21.7989361,20.3690803 L21.7989361,20.3690803 L21.7989361,9.45005602 L21.7988273,9.40440717 C21.7924506,9.13112002 21.6834256,8.86972052 21.4930454,8.67314904 L21.4930454,8.67314904 L21.4606604,8.64113521 C21.2627653,8.45356378 21.001303,8.3476123 20.7283956,8.34557831 L20.7283956,8.34557831 L10.999045,8.34557831 L10.9536256,8.34680558 C10.6818452,8.35991187 10.424282,8.47597218 10.2333197,8.67268897 L10.2333197,8.67268897 L10.2022764,8.70604455 C10.020595,8.90968513 9.92172026,9.17546612 9.92681453,9.45005602 L9.92681453,23.3244247 L8.05859238,23.3244247 L8.05859238,9.45005602 L8.05912712,9.39557584 C8.08604164,7.9636456 9.12409547,6.74934193 10.5346013,6.51158094 L10.5346013,6.51158094 L10.5439042,6.51033545 C10.6094872,6.50355914 10.9196781,6.49486502 10.9526467,6.49486502 L10.9526467,6.49486502 L9.72877683,3.62294691 L8.23005093,3.62294691 L8.19825921,3.62179864 C8.09280512,3.6141688 7.99315712,3.56877003 7.91801481,3.49320682 L7.91801481,3.49320682 L7.89637871,3.46981899 C7.82730568,3.38952602 7.78895999,3.28652329 7.78895999,3.17959158 L7.78895999,3.17959158 L7.78895999,2.18890482 L7.78970856,2.16286433 C7.80312064,1.9302147 7.99508557,1.74554949 8.23005093,1.74554949 L8.23005093,1.74554949 L14.9336806,1.74554949 L14.9336806,0.587550151 L14.9344303,0.561493816 C14.9478626,0.32870667 15.140108,0.144041464 15.3749252,0.144041464 L15.3749252,0.144041464 L16.3657282,0.144041464 Z M65.241861,19.0425416 L65.2687726,19.0436307 C65.3313927,19.0487047 65.3924249,19.0714494 65.4440468,19.1106321 L65.4440468,19.1106321 L65.4641066,19.1270201 C65.5414488,19.1953452 65.5836671,19.2961471 65.5777108,19.400477 L65.5777108,19.400477 L65.5777108,20.4064995 L65.5753282,20.4380536 C65.5499391,20.6888984 65.3738287,20.9001866 65.1303207,20.967173 L65.1303207,20.967173 L56.21632,23.1994387 L56.1896067,23.2074902 C56.0909674,23.2328078 55.9856473,23.2120139 55.903823,23.1495976 L55.903823,23.1495976 L55.883864,23.1331901 C55.8069028,23.0648465 55.7647936,22.9647198 55.7704663,22.8606729 L55.7704663,22.8606729 L55.7704663,21.854497 L55.7728268,21.8229981 C55.7980112,21.5725931 55.9732545,21.3616994 56.21632,21.2939769 L56.21632,21.2939769 L65.1303207,19.0618645 C65.1667326,19.0489825 65.2043736,19.0425416 65.241861,19.0425416 L65.241861,19.0425416 Z M32.0706242,12.2475959 L32.0968768,12.2483449 C32.3314314,12.2617645 32.5178991,12.4538448 32.5189361,12.6894177 L32.5189361,12.6894177 L32.5189361,13.1747929 L41.0592924,13.1747929 L41.0855574,13.1756398 C41.3201873,13.1899353 41.5057606,13.3827286 41.5057606,13.6183016 L41.5057606,13.6183016 L41.5057606,14.6040809 L41.5050038,14.6300886 C41.4914449,14.862444 41.2973689,15.0468557 41.0592924,15.0477429 L41.0592924,15.0477429 L40.4613384,15.0477429 L40.4613384,17.7294982 L40.4605466,17.7668115 C40.4463332,18.1013741 40.241786,18.4004246 39.9305236,18.5367699 L39.9305236,18.5367699 L37.6946489,19.5240828 L38.1664672,19.7326484 L38.2170136,19.7591792 L40.1545259,20.6264135 L41.0609824,21.0283624 L41.4536778,21.1952149 L41.4808474,21.2084237 C41.5785087,21.2599786 41.654148,21.3454027 41.6927365,21.4488676 L41.6927365,21.4488676 L41.7030446,21.4799297 C41.7334972,21.58433 41.7248885,21.696623 41.6776801,21.7956079 L41.6776801,21.7956079 L41.3238548,22.5843234 L41.3118259,22.6091104 C41.2018012,22.8194131 40.9439908,22.9113887 40.7223671,22.8145124 L40.7223671,22.8145124 L40.3854419,22.6594684 L40.3854419,22.6677497 L35.5263743,20.4879321 L34.4277183,20.9734606 L34.3950221,20.9939594 C34.372853,21.00708 34.3499782,21.0191099 34.3266254,21.0300494 L34.3266254,21.0300494 L29.5164143,23.148064 L29.4919684,23.1581812 C29.2571774,23.2489969 29.0681024,23.1382084 29.0681024,22.9013125 L29.0681024,22.9013125 L29.0596524,21.8505098 L29.0632332,21.814657 C29.0955813,21.5532067 29.26101,21.3253151 29.5030479,21.2117775 L29.5030479,21.2117775 L30.0790318,20.9582782 L30.0790318,20.9467765 L33.344426,19.5056799 L31.2180943,18.5516455 L31.1853191,18.5341869 C30.9053032,18.3775297 30.7310716,18.0832419 30.7312196,17.76293 L30.7312196,17.76293 L30.7312196,15.0477429 L29.4741642,15.0477429 L29.4479146,15.046896 C29.2134122,15.0326003 29.027696,14.8398017 29.027696,14.6040809 L29.027696,14.6040809 L29.027696,13.6183016 L29.0284532,13.5923097 C29.0420221,13.3600918 29.2362358,13.1756802 29.4741642,13.1747929 L29.4741642,13.1747929 L30.7312196,13.1747929 L30.7312196,12.6894177 L30.7319769,12.6634593 C30.7455457,12.4315482 30.9397594,12.2475959 31.1776878,12.2475959 L31.1776878,12.2475959 L32.0706242,12.2475959 Z M45.0327981,0.000192519167 L45.0585839,0.0012346906 C45.1525482,0.00884441464 45.239337,0.0577653244 45.2939805,0.136066895 L45.2939805,0.136066895 L45.3087079,0.159253102 C45.3586775,0.246112317 45.3642052,0.352236485 45.322096,0.444314634 L45.322096,0.444314634 L44.7474948,2.27279115 L51.7858988,2.27279115 L51.8115092,2.27208844 C51.9135045,2.27336918 52.0092865,2.32333999 52.068283,2.40728531 L52.068283,2.40728531 L52.0830841,2.43051296 C52.1333119,2.51753521 52.1389686,2.62394053 52.0968594,2.71629983 L52.0968594,2.71629983 L44.2404937,22.7361469 L44.2289139,22.7672565 C44.1344595,23.0026098 43.9108278,23.1643838 43.6537552,23.1799623 L43.6537552,23.1799623 L42.653273,23.1799623 L42.6277793,23.1803276 C42.5262928,23.1777627 42.4314925,23.1273019 42.373347,23.0437812 L42.373347,23.0437812 L42.358648,23.0206745 C42.3087449,22.934115 42.3028533,22.8283657 42.3436951,22.7361469 L42.3436951,22.7361469 L49.6374433,4.15463592 L42.7071995,4.15463592 L42.6817034,4.15506905 C42.5801984,4.15276388 42.485289,4.10241193 42.4274271,4.01860819 L42.4274271,4.01860819 L42.412776,3.99543112 C42.3630842,3.90863731 42.3577913,3.80291145 42.3996189,3.71097388 L42.3996189,3.71097388 L43.4257583,0.444314634 L43.4373955,0.413205877 C43.5322915,0.177864688 43.7563588,0.016237504 44.0137259,0.000805947502 L44.0137259,0.000805947502 L45.0128253,0.000805947502 C45.0194317,0.000192519167 45.0260381,0.000192519167 45.0327981,0.000192519167 L45.0327981,0.000192519167 Z M48.5175855,15.1176738 L48.5428461,15.1189005 C48.7192736,15.1359255 48.8859783,15.3270062 48.9563719,15.4944721 L48.9563719,15.4944721 L52.0178902,22.7355335 L52.0279204,22.7609924 C52.0605009,22.8553842 52.0470043,22.9602783 51.9903892,23.0437812 L51.9903892,23.0437812 L51.975368,23.0639968 C51.91242,23.1420242 51.8159288,23.1856247 51.7153795,23.1799623 L51.7153795,23.1799623 L50.7360993,23.1799623 L50.7032415,23.1769226 C50.4528722,23.1474061 50.2392829,22.9760486 50.1555062,22.7338466 L50.1555062,22.7338466 L47.7636902,17.0531935 L47.7568282,17.0308625 C47.6885602,16.8055138 47.7027973,16.7412317 47.8630932,16.2362603 L47.8630932,16.2362603 L48.1806602,15.4242345 C48.2780659,15.2000265 48.398978,15.1176738 48.5175855,15.1176738 L48.5175855,15.1176738 Z M6.47859267,7.19892739 L6.51063555,7.20008328 C6.61692536,7.2077638 6.71738598,7.25346674 6.79308697,7.32958763 L6.79308697,7.32958763 L6.81492486,7.35306646 C6.88464428,7.43368666 6.92337089,7.53724706 6.92337089,7.64473643 L6.92337089,7.64473643 L6.92337089,8.64079069 L6.92261593,8.66697784 C6.90908914,8.90093634 6.71548399,9.08659974 6.47859267,9.08659974 L6.47859267,9.08659974 L4.26484161,9.08659974 L4.26484161,12.1414728 L6.47859267,12.1414728 L6.50472885,12.1422305 C6.73822614,12.1558049 6.92337089,12.3500823 6.92337089,12.5872819 L6.92337089,12.5872819 L6.92337089,13.5833361 L6.9226165,13.6095568 C6.90909973,13.843822 6.71563214,14.0299448 6.47859267,14.0308321 L6.47859267,14.0308321 L4.26484161,14.0308321 L4.26484161,19.6866413 L4.26536382,19.730091 C4.28656733,20.5675127 4.94932431,21.250972 5.78876393,21.2916765 L5.78876393,21.2916765 L6.47859267,21.2916765 L6.50472885,21.2924331 C6.73822614,21.3059875 6.92337089,21.4999904 6.92337089,21.7374856 L6.92337089,21.7374856 L6.92337089,22.7333865 L6.92261593,22.7595731 C6.90908914,22.9935214 6.71548399,23.1790422 6.47859267,23.1790422 L6.47859267,23.1790422 L5.63942907,23.1790422 L5.62099267,23.1802882 L5.60242183,23.1802882 L5.60242183,23.1802882 L5.58396623,23.1790422 L5.52800698,23.1742166 C3.74163309,23.0058066 2.37350427,21.4980067 2.38156307,19.693389 L2.38156307,19.693389 L2.38156307,14.0308321 L0.44466533,14.0308321 L0.412542333,14.0296724 C0.305997425,14.0219665 0.205397136,13.9761115 0.12955648,13.8997118 L0.12955648,13.8997118 L0.107722636,13.876035 C0.0380308644,13.7947915 -0.000518472547,13.6909649 2.88886921e-05,13.5833361 L2.88886921e-05,13.5833361 L2.88886921e-05,12.5872819 L0.000789740175,12.56111 C0.0143167314,12.3272788 0.207922166,12.1414728 0.44466533,12.1414728 L0.44466533,12.1414728 L2.38156307,12.1414728 L2.38156307,9.08659974 L0.44466533,9.08659974 L0.412580541,9.08555826 C0.306151061,9.07822339 0.205550773,9.03252045 0.129710117,8.95639957 L0.129710117,8.95639957 L0.107838065,8.93284087 C0.0380308644,8.8519672 -0.000518472547,8.74828007 2.88886921e-05,8.64079069 L2.88886921e-05,8.64079069 L2.88886921e-05,7.64473643 L0.0011853875,7.6126265 C0.00883118441,7.50611303 0.0543303701,7.40542967 0.130171027,7.32958763 L0.130171027,7.32958763 L0.15363981,7.3076715 C0.234195763,7.23771025 0.337398986,7.19892739 0.44466533,7.19892739 L0.44466533,7.19892739 L6.47859267,7.19892739 Z M76.5595077,15.4337427 L76.5855304,15.4345932 C76.8180235,15.4489518 77.0026232,15.6426589 77.0033641,15.8798584 L77.0033641,15.8798584 L77.0033641,16.8722321 L77.0025315,16.8983677 C76.9883481,17.1318425 76.7952137,17.3165076 76.5595077,17.3165076 L76.5595077,17.3165076 L72.2102066,17.3165076 L72.2102066,19.1604731 L72.2107255,19.2037519 C72.2318017,20.0378776 72.8907599,20.7186487 73.7250644,20.7581472 L73.7250644,20.7581472 L78.1212246,20.7581472 L78.1476617,20.7591321 C78.3750449,20.7743663 78.5555671,20.9621407 78.5598608,21.1941414 L78.5598608,21.1941414 L78.5598608,22.1849816 L78.5588351,22.2170188 C78.5516054,22.323325 78.5065175,22.424135 78.4309562,22.499977 L78.4309562,22.499977 L78.4076129,22.5219313 C78.3274748,22.5920078 78.2246779,22.6307906 78.117691,22.6307906 L78.117691,22.6307906 L73.5947805,22.6307906 L73.5698116,22.6325287 C73.5531279,22.633108 73.5363985,22.6325287 73.5198058,22.6307906 L73.5198058,22.6307906 L73.4642019,22.6260089 C71.6891719,22.4590429 70.3294777,20.9564222 70.3382123,19.1587862 L70.3382123,19.1587862 L70.3382123,15.8798584 L70.3391204,15.8536888 C70.353567,15.6198973 70.5459976,15.43463 70.782,15.4337427 L70.782,15.4337427 L76.5595077,15.4337427 Z M16.3422218,9.38656619 L16.368211,9.38731861 C16.600397,9.40079965 16.7845418,9.59374614 16.7845418,9.82961481 L16.7845418,9.82961481 L16.7845418,11.2618166 L19.6984153,11.2618166 L19.724502,11.2625714 C19.9575555,11.2760943 20.1422717,11.4696428 20.1422717,11.7063988 L20.1422717,11.7063988 L20.1422717,12.7225428 L20.1414391,12.7485816 C20.1272557,12.9812007 19.9341213,13.1654381 19.6984153,13.1654381 L19.6984153,13.1654381 L16.7796255,13.1654381 L16.7796255,14.9522015 L16.8485263,14.9582265 C19.1132491,15.1590227 20.4846418,15.56098 20.4913342,17.9549331 L20.4913342,17.9549331 L20.4908176,18.0346463 C20.4567451,20.6500483 18.7398929,21.7687704 16.0950204,21.7687704 L16.0950204,21.7687704 L13.8476228,21.7687704 L13.8476228,20.23796 L15.8779317,20.2480816 L15.9295615,20.2479706 C17.5924699,20.240749 18.6280285,19.877078 18.6280285,17.9549331 L18.6280285,17.9549331 L18.6277118,17.8973587 C18.6068245,16.0198969 17.5540773,16.3609396 15.8779317,16.3609396 L13.8476228,16.3609396 L13.8476228,14.9086481 L14.9112496,14.9086481 L14.9106735,14.8953827 L14.9106735,14.8953827 L14.9112496,14.8821173 L14.9112496,13.1654381 L11.9924598,13.1654381 L11.9664524,13.1646868 C11.7340868,13.151226 11.5493442,12.9585594 11.5486034,12.7225428 L11.5486034,12.7225428 L11.5486034,11.7063988 L11.5497538,11.6743758 C11.5573975,11.568162 11.6028791,11.4678588 11.6785801,11.3920168 L11.6785801,11.3920168 L11.7020103,11.3702151 C11.7824474,11.3005995 11.8856125,11.2618166 11.9924598,11.2618166 L11.9924598,11.2618166 L14.9112496,11.2618166 L14.9112496,9.82961481 L14.9120011,9.80359074 C14.925465,9.57108879 15.1181653,9.38656619 15.3537233,9.38656619 L15.3537233,9.38656619 L16.3422218,9.38656619 Z M12.8184107,14.7612719 L12.8184107,21.6247681 L11.6420145,21.6247681 L11.6170194,21.6239593 C11.4020526,21.6100054 11.2318046,21.4172646 11.2318046,21.1817195 L11.2318046,21.1817195 L11.2318046,15.2044739 L11.232553,15.1774769 C11.2454633,14.9452886 11.4237935,14.7612719 11.6420145,14.7612719 L11.6420145,14.7612719 L12.8184107,14.7612719 Z M65.241861,15.4619604 L65.268658,15.4630423 C65.3310134,15.4680827 65.3918104,15.4906765 65.4434323,15.5295908 L65.4434323,15.5295908 L65.4634319,15.5458677 C65.5405771,15.6137304 65.5831117,15.713879 65.5778644,15.8182089 L65.5778644,15.8182089 L65.5778644,16.8242313 L65.5755002,16.8558399 C65.5502579,17.1071153 65.3742773,17.3187098 65.1304744,17.386285 L65.1304744,17.386285 L56.21632,19.6187041 L56.1896067,19.6267557 C56.0909674,19.6520732 55.9856473,19.6312794 55.903823,19.5688631 L55.903823,19.5688631 L55.883864,19.5524555 C55.8069028,19.484112 55.7647936,19.3839853 55.7704663,19.2799383 L55.7704663,19.2799383 L55.7704663,18.2739158 L55.7728792,18.2424523 C55.7984597,17.9923182 55.9735494,17.7814126 56.21632,17.7133957 L56.21632,17.7133957 L65.1304744,15.48113 C65.1667326,15.468248 65.2043736,15.4619604 65.241861,15.4619604 L65.241861,15.4619604 Z M38.6719319,15.0411486 L32.5236988,15.0411486 L32.5236988,15.541246 L32.5137125,17.2091576 L35.5042506,18.5433642 L38.6719319,17.1475081 L38.6719319,15.0411486 Z M42.6896273,5.02995982 L42.6973668,5.03030487 L43.6981562,5.03030487 L43.731489,5.03320464 C43.9854611,5.06174919 44.2017004,5.23442953 44.2847411,5.4779542 L44.2847411,5.4779542 L46.2102697,9.98235846 L46.2173116,10.0050949 C46.287365,10.2345181 46.2725838,10.2993619 46.1087158,10.8084931 L46.1087158,10.8084931 L45.7825451,11.6312538 L45.768553,11.6620263 C45.5139251,12.1992908 45.1124434,11.8439238 44.9913162,11.5604029 L44.9913162,11.5604029 L42.3894789,5.4779542 L42.3794935,5.45237746 C42.3471028,5.35754438 42.3610688,5.2521231 42.4186698,5.1684796 C42.4782809,5.08137278 42.5769156,5.0298448 42.6820031,5.0298448 L42.6820031,5.0298448 L42.6896273,5.02995982 L42.6896273,5.02995982 Z M35.803074,0.000192519167 L35.8292431,0.00094901418 C36.0630362,0.0145032389 36.2484667,0.208500732 36.2484667,0.445848205 L36.2484667,0.445848205 L36.2484667,4.82925373 L41.2756129,4.82925373 L41.3017972,4.83010706 C41.5357179,4.84451726 41.7210056,5.03895311 41.7210056,5.27659635 L41.7210056,5.27659635 L41.7210056,6.27065696 L41.72025,6.29687757 C41.7067125,6.53114257 41.5129487,6.71726017 41.2756129,6.71799958 L41.2756129,6.71799958 L36.2484667,6.71799958 L36.2484667,11.3605786 L36.2477105,11.3867499 C36.234163,11.6205709 36.0402615,11.8062343 35.803074,11.8062343 L35.803074,11.8062343 L34.8081228,11.8062343 L34.7819531,11.8054772 C34.5481497,11.791913 34.3625764,11.5977782 34.3625764,11.3605786 L34.3625764,11.3605786 L34.3625764,6.71799958 L29.3305139,6.71799958 L29.3042624,6.71724074 C29.0697294,6.70364445 28.8835848,6.50903959 28.8835848,6.27065696 L28.8835848,6.27065696 L28.8835848,5.27659635 L28.8843437,5.25029651 C28.8979433,5.01534492 29.0925855,4.82925373 29.3305139,4.82925373 L29.3305139,4.82925373 L34.3625764,4.82925373 L34.3625764,0.445848205 L34.363333,0.419661623 C34.3768909,0.185713317 34.5709351,0.000192519167 34.8081228,0.000192519167 L34.8081228,0.000192519167 L35.803074,0.000192519167 Z M31.7502917,7.7749366 L31.7752333,7.77598533 C31.8661071,7.78364386 31.9498913,7.83289279 32.0025632,7.91203783 L32.0025632,7.91203783 L32.0167532,7.93545113 C32.0648948,8.02313332 32.0701761,8.1299838 32.0297569,8.223046 L32.0297569,8.223046 L31.1738469,11.0685867 L31.1627655,11.1001306 C31.0722698,11.3387633 30.8557421,11.5026256 30.6066202,11.5176162 L30.6066202,11.5176162 L29.6431646,11.5176162 L29.6184095,11.5181721 C29.5198516,11.5162832 29.4276478,11.465463 29.3709203,11.3806684 L29.3709203,11.3806684 L29.3566567,11.3571724 C29.3082568,11.2691671 29.3028464,11.1617895 29.3432657,11.0685867 L29.3432657,11.0685867 L30.1990221,8.223046 L30.210177,8.19156111 C30.3012126,7.95339259 30.5177157,7.79024674 30.7662488,7.77555003 L30.7662488,7.77555003 L31.7312408,7.77555003 C31.7376935,7.77508996 31.7439926,7.7749366 31.7502917,7.7749366 L31.7502917,7.7749366 Z M38.7356335,7.77507079 L38.7456775,7.77555003 L39.7610624,7.77555003 L39.7937702,7.77803858 C40.0539136,7.80412057 40.2762123,7.97733114 40.3611673,8.223046 L40.3611673,8.223046 L41.2599419,11.06874 L41.2702827,11.0943613 C41.3038734,11.1893799 41.2899779,11.2952229 41.2316728,11.3792881 L41.2316728,11.3792881 L41.2162321,11.3997158 C41.1514907,11.47859 41.0518469,11.5230073 40.9477522,11.5177696 L40.9477522,11.5177696 L39.9291409,11.5177696 L39.8951984,11.514885 C39.6365916,11.486427 39.4166344,11.3131465 39.332416,11.06874 L39.332416,11.06874 L38.4317977,8.223046 L38.4213869,8.1973483 C38.3875642,8.10205151 38.4015184,7.9959625 38.4605278,7.91203783 L38.4605278,7.91203783 L38.4761138,7.89159527 C38.5359837,7.81931217 38.6250727,7.77676409 38.7197129,7.7749366 L38.7197129,7.7749366 L38.7356335,7.77507079 L38.7356335,7.77507079 Z M75.0661591,7.18021783 L75.0881967,7.18133453 C75.176762,7.19021597 75.2708858,7.25144629 75.3917152,7.34246962 L75.3917152,7.34246962 L78.2361449,9.12141179 L78.2659395,9.14430454 C78.4603715,9.3013779 78.5702096,9.54626933 78.5590892,9.80201053 L78.5590892,9.80201053 L78.5590892,11.124102 L78.5584728,11.1478274 C78.5461963,11.3789297 78.3521009,11.4250182 78.1158473,11.2464809 L78.1158473,11.2464809 L74.3661903,8.84383547 L74.339434,8.82324446 C74.112708,8.64557968 74.0211621,8.48758697 74.1420344,8.28024819 L74.1420344,8.28024819 L74.8112758,7.34246962 C74.9043796,7.22806524 74.9836562,7.18021783 75.0661591,7.18021783 L75.0661591,7.18021783 Z M78.6291475,0.413183146 L78.6439867,0.413506932 C78.8877274,0.424085301 79.1933783,0.693930892 78.8132043,1.23257004 L78.8132043,1.23257004 L71.0954188,10.6246179 L71.0694146,10.6594068 C70.8917408,10.8873516 70.6288096,11.0350891 70.3396799,11.0675132 L70.3396799,11.0675132 L68.8345013,11.0675132 L68.8114721,11.0668997 C68.5871525,11.0546816 68.5422941,10.8614804 68.7039101,10.6246179 L68.7039101,10.6246179 L75.5204627,2.2815325 L69.637253,2.2815325 L69.6111991,2.28078357 C69.3784415,2.26736496 69.1940111,2.07531104 69.1940111,1.84047753 L69.1940111,1.84047753 L69.1940111,0.854544833 L69.1947632,0.828618746 C69.2082381,0.59699276 69.4011023,0.413183146 69.637253,0.413183146 L69.637253,0.413183146 L78.6291475,0.413183146 Z M68.0173077,0.413183146 L68.0173077,2.28199257 L67.117304,2.28199257 L67.117304,10.6246179 L67.1165484,10.6505775 C67.1030103,10.88251 66.9092305,11.0667738 66.6714503,11.0675132 L66.6714503,11.0675132 L65.6672809,11.0675132 L65.6350742,11.0663649 C65.5282511,11.0587351 65.4273842,11.0133363 65.3514039,10.9377731 L65.3514039,10.9377731 L65.329497,10.9143891 C65.2595952,10.8341214 65.221148,10.7312708 65.2214273,10.6246179 L65.2214273,10.6246179 L65.2214273,10.1930711 L56.5042351,10.1930711 L56.478083,10.1922446 C56.2444469,10.1781692 56.0592704,9.98654839 56.0583815,9.75186276 L56.0583815,9.75186276 L56.0583815,8.767617 L56.0595425,8.73579961 C56.0672555,8.63025974 56.1131181,8.53052695 56.188819,8.45538198 L56.188819,8.45538198 L56.2124096,8.4337054 C56.2933593,8.3645046 56.3968291,8.32610196 56.5042351,8.32610196 L56.5042351,8.32610196 L57.4192953,8.32610196 L57.4192953,2.28199257 L56.5042351,2.28199257 L56.478049,2.28124306 C56.2440977,2.26781408 56.0583815,2.07561228 56.0583815,1.84063089 L56.0583815,1.84063089 L56.0583815,0.854544833 L56.0591388,0.828618746 C56.0727069,0.59699276 56.2668993,0.413183146 56.5042351,0.413183146 L56.5042351,0.413183146 L68.0173077,0.413183146 Z M65.2214273,7.33679541 L59.3068756,7.33679541 L59.3068756,8.32288146 L65.2214273,8.32288146 L65.2214273,7.33679541 Z M20.068987,3.62294691 L11.7550911,3.62294691 L12.9508455,6.46787417 L18.7784388,6.46787417 L20.068987,3.62294691 Z M65.2214273,4.86360572 L59.3068756,4.86360572 L59.3068756,5.92299646 L65.2214273,5.92299646 L65.2214273,4.86360572 Z M70.843301,3.43677141 L70.8961344,3.43790971 C71.0370805,3.44398676 71.178229,3.47444613 71.3134293,3.53047259 L71.3134293,3.53047259 L71.3534352,3.54789866 C71.7888569,3.74679323 72.0697601,4.18162226 72.0690174,4.66224787 L72.0690174,4.66224787 L72.0683817,4.7003286 C72.0473496,5.35792107 71.5068433,5.88435047 70.8429937,5.88435047 L70.8429937,5.88435047 L70.7993657,5.88357953 C70.3209605,5.86665802 69.8940928,5.57246276 69.7102304,5.1284534 L69.7102304,5.1284534 L69.6937924,5.08669557 C69.527093,4.63938808 69.6363684,4.13391413 69.9767901,3.79470685 C70.211086,3.56099065 70.5246585,3.43677141 70.843301,3.43677141 L70.843301,3.43677141 Z M3.05741087,3.91620833e-05 L3.08314902,0.00109047459 C3.17690608,0.00876560614 3.26314319,0.0580848182 3.31736415,0.136526967 L3.31736415,0.136526967 L3.33184182,0.159701103 C3.38096441,0.246474412 3.38639823,0.352083128 3.34471148,0.444161277 L3.34471148,0.444161277 L2.50585515,3.14800003 L6.48212631,3.14800003 L6.50811153,3.14894087 C6.74022615,3.16403992 6.92337089,3.35651635 6.92337089,3.591202 L6.92337089,3.591202 L6.92337089,4.58342233 L6.9226165,4.60949394 C6.90909993,4.8424084 6.71563763,5.02693102 6.47874631,5.02693102 L6.47874631,5.02693102 L1.5680568,5.02693102 L1.53479161,5.03357081 C1.51247446,5.0371037 1.48990694,5.03884174 1.46727113,5.03873951 L1.46727113,5.03873951 L0.479079948,5.03873951 L0.453720105,5.03927356 C0.352736953,5.03735203 0.258067662,4.98715253 0.199922084,4.90363192 L0.199922084,4.90363192 L0.18527094,4.88038128 C0.135578185,4.79332876 0.130273451,4.68746232 0.171960206,4.59538418 L0.171960206,4.59538418 L1.46220112,0.444161277 L1.47377449,0.413017309 C1.56813228,0.177429643 1.79057393,0.0160841469 2.04617418,0.000652590418 L2.04617418,0.000652590418 L3.03928174,0.000652590418 C3.04542721,0.000345876251 3.05157267,3.91620833e-05 3.05741087,3.91620833e-05 L3.05741087,3.91620833e-05 Z M40.9660349,0.144041464 L40.9922781,0.145102361 C41.0879051,0.152847781 41.1761843,0.20262387 41.2316728,0.281909483 L41.2316728,0.281909483 L41.2464707,0.305249046 C41.2966749,0.392670571 41.3021791,0.499357047 41.2597883,0.591997506 L41.2597883,0.591997506 L40.3610136,3.4375382 L40.3492652,3.46902549 C40.2534039,3.70723128 40.0257784,3.87084864 39.7642887,3.8867211 L39.7642887,3.8867211 L38.7487502,3.8867211 L38.7223634,3.88738639 C38.6172836,3.88580911 38.5187088,3.8338129 38.4591451,3.74731951 L38.4591451,3.74731951 L38.4452376,3.72524028 C38.3935476,3.6351819 38.3892167,3.52521126 38.4350241,3.43079049 L38.4350241,3.43079049 L39.3354887,0.591997506 L39.3473444,0.560625154 C39.4439696,0.323299653 39.6710184,0.160527351 39.9322136,0.144654892 L39.9322136,0.144654892 L40.9475985,0.144654892 C40.9535904,0.144348178 40.9598895,0.144041464 40.9660349,0.144041464 L40.9660349,0.144041464 Z M29.6330245,0.144309839 L29.6413209,0.144654892 L30.6044693,0.144654892 L30.6367358,0.147462023 C30.8826013,0.175320983 31.0923746,0.347884978 31.1726178,0.591997506 L31.1726178,0.591997506 L32.0297569,3.43784491 L32.0396465,3.46354278 C32.0717595,3.55884152 32.0583333,3.66495396 32.0025632,3.74915979 L32.0025632,3.74915979 L31.9877299,3.76961721 C31.9255738,3.84858782 31.8303483,3.89281999 31.7309335,3.88687445 L31.7309335,3.88687445 L30.7662488,3.88687445 L30.7339095,3.88404423 C30.4875155,3.85597886 30.2779016,3.68254531 30.1981003,3.43784491 L30.1981003,3.43784491 L29.3424975,0.591997506 L29.3327906,0.566341344 C29.3013132,0.471208567 29.3150093,0.365412415 29.3709203,0.281909483 L29.3709203,0.281909483 L29.3857836,0.261422643 C29.4428916,0.188956985 29.5280139,0.146022326 29.618429,0.144194821 L29.618429,0.144194821 L29.6330245,0.144309839 L29.6330245,0.144309839 Z M59.3068756,2.43534966 L59.3068756,3.45164705 L65.2214273,3.45164705 L65.2214273,2.43857016 L59.3068756,2.43534966 Z" id="形状结合" fill="#FFFFFF" fill-rule="nonzero"></path>
                        <path d="M78.116677,12.103517 C78.23467,12.103517 78.3474393,12.1505976 78.4307104,12.2343306 C78.5138278,12.3179102 78.5603797,12.4315478 78.5599256,12.5496327 L78.5599256,13.5743648 C78.5599256,13.8197361 78.3615739,14.0187936 78.116677,14.0187936 L68.6631042,14.0187936 L68.6631042,23.0317427 C68.6631042,23.2772674 68.4650665,23.4767849 68.220016,23.4778584 L67.2299812,23.4778584 C66.9849306,23.4767849 66.786893,23.2772674 66.786893,23.0317427 L66.786893,14.0187936 L56.6459496,14.0187936 C56.4010527,14.0187936 56.2027078,13.8197361 56.2027078,13.5743648 L56.2027078,12.5496327 C56.2027078,12.3039547 56.4007455,12.1044371 56.6459496,12.103517 L78.116677,12.103517 Z M16.3656975,0.144056799 C16.6095189,0.144056799 16.8069421,0.342654224 16.8069421,0.587565486 L16.8069421,1.74541147 L23.505809,1.74541147 C23.6233411,1.74679169 23.7358031,1.79525253 23.8179987,1.87990564 C23.9001944,1.96486546 23.9453636,2.07896313 23.9437627,2.1973548 L23.9437627,3.18804156 C23.9425981,3.43310618 23.7445604,3.63139689 23.5005853,3.63139689 L21.9854203,3.63139689 L20.7466477,6.50316164 L21.1146076,6.50316164 C22.5666279,6.72828984 23.6453111,7.97354936 23.6671275,9.45007136 L23.6671275,20.3690957 C23.6494593,21.9828723 22.3604475,23.2911615 20.7549441,23.32444 L19.9024141,23.32444 L19.9024141,21.445049 L20.7549441,21.445049 C21.0359456,21.4439755 21.3048098,21.3292644 21.5013111,21.126833 C21.6975052,20.9247084 21.8045899,20.6517328 21.7989054,20.3690957 L21.7989054,9.45007136 C21.8042827,9.16037983 21.6941251,8.88065651 21.4930147,8.67316437 C21.2917507,8.46567224 21.0164337,8.34774064 20.7283649,8.34544029 L10.9990143,8.34544029 C10.7106382,8.34728057 10.4348603,8.46505881 10.233289,8.67255095 C10.0424722,8.86926772 9.93342422,9.13081249 9.92704621,9.40437532 L9.92693744,23.32444 L8.05871529,23.32444 L8.05871529,9.45007136 C8.05963711,7.99440592 9.10621024,6.7523669 10.5345705,6.51159628 C10.5694461,6.50484857 10.9175868,6.494727 10.952616,6.494727 L9.72874611,3.62311561 L8.2300202,3.62311561 C8.11294904,3.62311561 8.00079426,3.5763417 7.91813772,3.49322216 C7.83548118,3.41010262 7.78892927,3.29738516 7.78892927,3.17960692 L7.78892927,2.18892016 C7.78892927,1.9440089 7.98635241,1.74541147 8.2300202,1.74541147 L14.9338035,1.74541147 L14.9338035,0.587565486 C14.9338035,0.342654224 15.1313803,0.144056799 15.3750481,0.144056799 L16.3656975,0.144056799 Z M65.4441083,19.1105554 C65.5341394,19.178646 65.5842249,19.2875295 65.5777722,19.4005537 L65.5777722,20.4065761 C65.5645595,20.6711171 65.3840363,20.8973188 65.1303822,20.9672496 L56.2162278,23.1995153 C56.1103721,23.236321 55.9931473,23.2176115 55.9037308,23.1495209 C55.8143142,23.0815837 55.7643823,22.9733136 55.7705278,22.8607495 L55.7705278,21.8545737 C55.7835869,21.5904928 55.9631882,21.3645978 56.2162278,21.2940536 L65.1303822,19.0617879 C65.2363915,19.0242154 65.3542308,19.0424649 65.4441083,19.1105554 Z M32.0707318,12.2475193 C32.3174723,12.2475193 32.5179682,12.4450432 32.51889,12.6894944 L32.51889,13.1747162 L41.0593999,13.1747162 C41.3062941,13.1756363 41.5058682,13.3740804 41.5058682,13.6183782 L41.5058682,14.6041576 C41.5058682,14.8484554 41.3062941,15.0467461 41.0593999,15.0476663 L40.4612923,15.0476663 L40.4612923,17.7294215 C40.4612923,18.0789223 40.2532682,18.395298 39.9304775,18.5366932 L37.6947564,19.5240061 L38.1664211,19.7325717 L38.2171212,19.7592559 L40.1546335,20.6263368 L41.0609363,21.0282857 L41.4536317,21.1951383 C41.5645574,21.2445192 41.6507476,21.3359201 41.692844,21.4487909 C41.7349405,21.561815 41.7295632,21.6866477 41.677634,21.7955312 L41.3238087,22.5844001 C41.2216403,22.8121353 40.9526224,22.915038 40.722321,22.8145891 L40.3853958,22.6593917 L40.3853958,22.6678263 L35.5263282,20.4880087 L34.4278259,20.9733839 C34.3957158,20.9947005 34.3617621,21.0137168 34.3265793,21.0299727 L29.5165218,23.1479874 C29.2703959,23.2565642 29.06821,23.1464538 29.06821,22.9012358 L29.0597599,21.8505864 C29.0808082,21.574237 29.2499622,21.3303992 29.5030018,21.2118542 L30.0791394,20.9582016 L30.0791394,20.9466998 L33.3443799,19.5057566 L31.2182018,18.5517222 C30.9190712,18.4002054 30.7310199,18.0954849 30.7311735,17.7628534 L30.7311735,15.0476663 L29.4742717,15.0476663 C29.2275312,15.0467461 29.0278035,14.8484554 29.0278035,14.6041576 L29.0278035,13.6183782 C29.0278035,13.3740804 29.2275312,13.1756363 29.4742717,13.1747162 L30.7311735,13.1747162 L30.7311735,12.6894944 C30.7311735,12.4453499 30.9310548,12.2475193 31.1776417,12.2475193 L32.0707318,12.2475193 Z M48.9563258,15.4943954 L52.0179977,22.7354568 C52.062706,22.8360591 52.0521051,22.9527638 51.9903431,23.0437045 C51.9285812,23.1344919 51.8242619,23.1861733 51.7153334,23.180039 L50.7360532,23.180039 C50.4716444,23.1620962 50.2430331,22.9866557 50.1556138,22.7337699 L47.7637978,17.0531168 C47.6877476,16.809279 47.697734,16.7575977 47.8630471,16.2361836 L48.1806141,15.4241578 C48.4302738,14.8493755 48.835721,15.2070043 48.9563258,15.4943954 Z M45.2939344,0.135990217 C45.3572327,0.226777611 45.3681409,0.343789066 45.3222035,0.444391313 L44.7474487,2.27271447 L51.7858527,2.27271447 C51.8973929,2.26535333 52.0044777,2.31642124 52.0682369,2.40720863 C52.1319961,2.49814938 52.1427507,2.61562091 52.0968133,2.71637651 L44.2404476,22.7362236 C44.1537965,22.9883426 43.9219587,23.1636298 43.6537091,23.180039 L42.653227,23.180039 C42.5423013,23.1858666 42.436292,23.1343386 42.3733009,23.0438579 C42.3101562,22.9533772 42.2990944,22.8368258 42.3438027,22.7362236 L49.6375509,4.1547126 L42.7073071,4.1547126 C42.5962277,4.16084688 42.4902184,4.1093189 42.427381,4.01853151 C42.3645436,3.92789747 42.3539427,3.81134609 42.3995728,3.7108972 L43.4257122,0.444391313 C43.5128242,0.19211891 43.7451229,0.0168317627 44.0138335,0.00072926896 L45.0127792,0.00072926896 C45.1240122,-0.00617179981 45.2306361,0.0452028232 45.2939344,0.135990217 Z M6.47856194,7.19894273 C6.59655492,7.19894273 6.70978516,7.24602335 6.79305625,7.32944961 C6.87648097,7.41302922 6.92349379,7.52651346 6.92349379,7.64475177 L6.92349379,8.64065267 C6.92349379,8.88694415 6.72422701,9.08661507 6.47856194,9.08661507 L4.26481088,9.08661507 L4.26481088,12.1414882 L6.47856194,12.1414882 C6.72422701,12.1414882 6.92349379,12.3411591 6.92349379,12.5874506 L6.92349379,13.5833515 C6.92349379,13.8297963 6.72453428,14.0299273 6.47856194,14.0308475 L4.26481088,14.0308475 L4.26481088,19.6866566 C4.26373543,20.5437694 4.93482049,21.2502855 5.78873321,21.2915385 L6.47856194,21.2915385 C6.72422701,21.2915385 6.92349379,21.4912094 6.92349379,21.7375009 L6.92349379,22.7334018 C6.92349379,22.9795399 6.72422701,23.1790575 6.47856194,23.1790575 L5.63955198,23.1790575 L5.6208083,23.1802844 C5.60851737,23.1807444 5.59622643,23.1802844 5.5839355,23.1790575 C3.77040802,23.0372022 2.37354324,21.5166667 2.38153234,19.6934043 L2.38153234,14.0308475 L0.444634602,14.0308475 C0.326487988,14.0308475 0.212950475,13.9836135 0.129525753,13.8995738 C0.0461010302,13.8155341 -0.00045088665,13.7017431 3.29239647e-06,13.5833515 L3.29239647e-06,12.5874506 C3.29239647e-06,12.3411591 0.198969536,12.1414882 0.444634602,12.1414882 L2.38153234,12.1414882 L2.38153234,9.08661507 L0.444634602,9.08661507 C0.326641625,9.08692179 0.213104111,9.04014788 0.129679389,8.95641491 C0.0461010302,8.87268194 -0.00045088665,8.75904434 3.29239647e-06,8.64065267 L3.29239647e-06,7.64475177 C3.29239647e-06,7.52651346 0.046715577,7.41302922 0.130140299,7.32944961 C0.213565022,7.24602335 0.326641625,7.19894273 0.444634602,7.19894273 L6.47856194,7.19894273 Z M76.5595691,15.4338193 C76.8041587,15.4347395 77.0025037,15.6339503 77.0034255,15.8797817 L77.0034255,16.8723088 C77.0025037,17.1178335 76.8040051,17.3164309 76.5595691,17.3164309 L72.2102681,17.3164309 L72.2102681,19.1605498 C72.2091926,20.0142887 72.8764368,20.717891 73.7251258,20.7582239 L78.1211324,20.7582239 C78.3608057,20.7599109 78.5553097,20.9532941 78.5599256,21.1940648 L78.5599256,22.1849049 C78.5603797,22.3029898 78.5139815,22.4164741 78.4310176,22.5000537 C78.3480538,22.5837866 78.2352845,22.6308673 78.1177524,22.6308673 L73.5948419,22.6308673 C73.5699528,22.633321 73.5447564,22.633321 73.5198672,22.6308673 C71.7177089,22.4902388 70.3292941,20.9752242 70.3381201,19.1588629 L70.3381201,15.8797817 C70.3392805,15.6339503 70.5373182,15.4347395 70.7820614,15.4338193 L76.5595691,15.4338193 Z M16.3421911,9.38673488 C16.5864734,9.38673488 16.7846647,9.58502559 16.7846647,9.82963014 L16.7846647,11.2618319 L19.6982309,11.2618319 C19.9435887,11.2618319 20.1423946,11.4608894 20.1423946,11.7064141 L20.1423946,12.7225582 C20.1414728,12.9673161 19.9428205,13.1653001 19.6982309,13.1653001 L16.7795947,13.1653001 L16.7795947,14.9522168 C19.0853742,15.1509676 20.4846971,15.536814 20.4914571,17.9551018 C20.4914571,20.627349 18.766578,21.7687858 16.0949896,21.7687858 L13.8475921,21.7687858 L13.8475921,20.2379754 L15.877901,20.2480969 C17.571131,20.2480969 18.6279977,19.8970626 18.6279977,17.9551018 C18.6279977,16.0131411 17.571131,16.3609549 15.877901,16.3609549 L13.8475921,16.3609549 L13.8475921,14.9086634 L14.9112189,14.9086634 C14.9104507,14.899922 14.9104507,14.890874 14.9112189,14.8821326 L14.9112189,13.1653001 L11.9925827,13.1653001 C11.7479931,13.1653001 11.5493409,12.9673161 11.5485727,12.7225582 L11.5485727,11.7064141 C11.5485727,11.5884825 11.5952782,11.4754584 11.6785493,11.3920321 C11.7618204,11.3087592 11.874897,11.2618319 11.9925827,11.2618319 L14.9112189,11.2618319 L14.9112189,9.82963014 C14.9112189,9.58502559 15.1094102,9.38673488 15.3536926,9.38673488 L16.3421911,9.38673488 Z M12.8183799,14.7612872 L12.8183799,21.6247835 L11.6419838,21.6247835 C11.4153697,21.6247835 11.2317738,21.4263394 11.2317738,21.1817348 L11.2317738,15.2044892 C11.2317738,14.9597313 11.4153697,14.7612872 11.6419838,14.7612872 L12.8183799,14.7612872 Z M65.4434937,15.5295142 C65.5332176,15.5969913 65.5836104,15.7052614 65.5779258,15.8181322 L65.5779258,16.8241547 C65.5648667,17.0891557 65.3844973,17.3158175 65.1305358,17.3863617 L56.2162278,19.6187808 C56.1103721,19.6555865 55.9931473,19.6368769 55.9037308,19.5689397 C55.8143142,19.5008492 55.7643823,19.3925791 55.7705278,19.280015 L55.7705278,18.2738392 C55.7840478,18.010065 55.9634955,17.7843234 56.2162278,17.713319 L65.1305358,15.4810533 C65.2362378,15.4436342 65.3536163,15.4617303 65.4434937,15.5295142 Z M38.6720394,15.0410719 L32.5238064,15.0410719 L32.5238064,15.5413227 L32.51382,17.2090809 L35.5043582,18.5432876 L38.6720394,17.1474314 L38.6720394,15.0410719 Z M42.6719706,5.03007484 L42.6973207,5.03022819 L43.6981101,5.03022819 C43.9663597,5.04679076 44.1980439,5.22376483 44.2848486,5.47803088 L46.2102236,9.98228178 C46.2881174,10.2307203 46.2778237,10.283015 46.1088234,10.8085698 L45.7826527,11.6313305 C45.5288449,12.2125539 45.114794,11.8492509 44.9912701,11.5603262 L42.3895864,5.47803088 C42.3450318,5.3768152 42.35594,5.25965039 42.4186237,5.16840292 C42.4715338,5.09132329 42.5552439,5.04202307 42.6467642,5.031837 L42.6719706,5.03007484 Z M35.8031815,0.000115840625 C36.0490002,0.000115840625 36.2485743,0.199633407 36.2485743,0.445771527 L36.2485743,4.82917706 L41.2755668,4.82917706 C41.5216927,4.8300972 41.7209595,5.03007484 41.7209595,5.27651967 L41.7209595,6.27073364 C41.7209595,6.51702512 41.5216927,6.71715611 41.2755668,6.71807626 L36.2485743,6.71807626 L36.2485743,11.3605019 C36.2485743,11.60664 36.0490002,11.8061576 35.8031815,11.8061576 L34.8080767,11.8061576 C34.562258,11.8061576 34.3626839,11.60664 34.3626839,11.3605019 L34.3626839,6.71807626 L29.3306214,6.71807626 C29.0837273,6.71807626 28.8836923,6.5177919 28.8836923,6.27073364 L28.8836923,5.27651967 C28.8836923,5.02946141 29.0837273,4.82917706 29.3306214,4.82917706 L34.3626839,4.82917706 L34.3626839,0.445771527 C34.3626839,0.199633407 34.562258,0.000115840625 34.8080767,0.000115840625 L35.8031815,0.000115840625 Z M32.0025171,7.91196115 C32.0636645,8.00351533 32.0739582,8.12144693 32.0297108,8.22296932 L31.1739544,11.06851 C31.0911443,11.3241563 30.8665274,11.5018971 30.6065741,11.5176929 L29.6432721,11.5176929 C29.5355728,11.524594 29.4323289,11.4726059 29.3708742,11.3805917 C29.3097268,11.2887308 29.2992795,11.1703391 29.3433733,11.06851 L30.1991296,8.22296932 C30.2824007,7.96793649 30.5068639,7.79080906 30.7662027,7.77547335 L31.7313483,7.77547335 C31.8385868,7.76857228 31.9415233,7.82025362 32.0025171,7.91196115 Z M38.719861,7.77491226 L38.745785,7.77547335 L39.7610163,7.77547335 C40.0352578,7.78988891 40.2726265,7.96701635 40.3612748,8.22296932 L41.2598958,11.0686634 C41.3059868,11.1700324 41.2952323,11.2876573 41.2316267,11.3792115 C41.1680211,11.470919 41.0604754,11.5235205 40.9477061,11.5178463 L39.9290948,11.5178463 C39.6560824,11.5012837 39.4202501,11.3236962 39.3323699,11.0686634 L38.4319053,8.22296932 C38.3853534,8.12144693 38.3962616,8.00351533 38.4606353,7.91196115 C38.5199154,7.82730804 38.6166356,7.77676009 38.719861,7.77491226 Z M75.3917767,7.3425463 L78.2360527,9.12133512 C78.4491468,9.2768392 78.570827,9.5334056 78.5591506,9.80208721 L78.5591506,11.1240253 C78.5591506,11.3756842 78.3600375,11.4308928 78.1157552,11.2464042 L74.3660981,8.84375879 C74.1201258,8.65758329 74.0165746,8.49563821 74.1419422,8.28017151 L74.8111836,7.3425463 C75.0119868,7.09625482 75.1474943,7.15821109 75.3917767,7.3425463 Z M68.0173692,0.413259825 L68.0173692,2.28191589 L67.1172118,2.28191589 L67.1172118,10.6245412 C67.1172118,10.8685324 66.9179451,11.0666697 66.6715118,11.0675899 L65.6673424,11.0675899 C65.5487349,11.0675899 65.4350437,11.020816 65.3514654,10.9376964 C65.2677334,10.8545769 65.2210278,10.7418594 65.2213351,10.6245412 L65.2213351,10.1931478 L56.5042966,10.1931478 C56.2584779,10.1922276 56.0593648,9.99516378 56.0584429,9.75178609 L56.0584429,8.76754032 C56.0584429,8.65037551 56.1054558,8.53811813 56.1888805,8.45545866 C56.2726125,8.37264583 56.38615,8.32602528 56.5042966,8.32602528 L57.4193567,8.32602528 L57.4193567,2.28191589 L56.5042966,2.28191589 C56.2581706,2.28191589 56.0584429,2.08439197 56.0584429,1.84055421 L56.0584429,0.854468155 C56.0584429,0.610937106 56.2581706,0.413259825 56.5042966,0.413259825 L68.0173692,0.413259825 Z M78.629209,0.413259825 C78.8751813,0.413259825 79.2011984,0.683014935 78.8132657,1.23249337 L71.0954803,10.6245412 C70.9180299,10.8723663 70.6431739,11.0333912 70.3395878,11.0675899 L68.8345628,11.0675899 C68.5902804,11.0675899 68.5368148,10.8692992 68.7039716,10.6245412 L75.5205242,2.28160918 L69.6373145,2.28160918 C69.3924176,2.28160918 69.1940726,2.08408526 69.1940726,1.84040085 L69.1940726,0.854468155 C69.1940726,0.610937106 69.3924176,0.413259825 69.6373145,0.413259825 L78.629209,0.413259825 Z M65.2213351,7.33671873 L59.3067835,7.33671873 L59.3067835,8.32280478 L65.2213351,8.32280478 L65.2213351,7.33671873 Z M20.0689562,3.62311561 L11.7550604,3.62311561 L12.9506611,6.46788951 L18.7784081,6.46788951 L20.0689562,3.62311561 Z M65.2213351,4.86352904 L59.3067835,4.86352904 L59.3067835,5.92291978 L65.2213351,5.92291978 L65.2213351,4.86352904 Z M71.3134907,3.53054927 C71.7714817,3.72040534 72.0698442,4.16713453 72.0690788,4.66232455 C72.0681542,5.33755579 71.5196712,5.88427379 70.8430552,5.88427379 C70.347116,5.88427379 69.8998796,5.58599426 69.7101382,5.12853008 C69.5205506,4.6710659 69.6256381,4.14459103 69.9768515,3.79463017 C70.3277577,3.44482266 70.8553461,3.34038649 71.3134907,3.53054927 Z M3.31717978,0.136542302 C3.37970992,0.22717634 3.39015721,0.343727723 3.34468075,0.444023256 L2.50582443,3.147862 L6.48209559,3.147862 C6.72637792,3.14985565 6.92349379,3.34783964 6.92349379,3.59137069 L6.92349379,4.58343766 C6.92349379,4.82850228 6.72438065,5.02694635 6.47871558,5.02694635 L1.56802607,5.02694635 C1.53514782,5.03507428 1.50119412,5.0389082 1.46724041,5.03860149 L0.479202858,5.03860149 C0.368738078,5.04550256 0.262728762,4.99412793 0.199891356,4.9034939 C0.13705395,4.8127065 0.126606655,4.69584841 0.172083115,4.59524616 L1.4621704,0.444023256 C1.54897512,0.19190421 1.77943016,0.0167704199 2.04614345,0.000514569043 L3.03940465,0.000514569043 C3.14956216,-0.00577307139 3.25480329,0.0459082658 3.31717978,0.136542302 Z M41.2316267,0.281832804 C41.2953859,0.373233626 41.3059868,0.490858509 41.2597422,0.591920827 L40.3611212,3.43746152 C40.2730874,3.69264771 40.037255,3.87008185 39.7642426,3.88679778 L38.7488578,3.88679778 C38.6339375,3.89431227 38.52378,3.84109737 38.4592526,3.74739619 C38.3947252,3.65354165 38.3853534,3.53300298 38.4351316,3.43071381 L39.3354426,0.591920827 C39.4242447,0.33780814 39.6597697,0.161294136 39.9323212,0.144424856 L40.9475524,0.144424856 C41.0600145,0.138137216 41.1678674,0.190278625 41.2316267,0.281832804 Z M29.6166641,0.144097899 L29.6412748,0.144424856 L30.6045769,0.144424856 C30.8642229,0.160373994 31.0888397,0.337194711 31.1727253,0.591920827 L32.0298644,3.43776823 C32.0739582,3.53929062 32.0635109,3.65737558 32.0025171,3.74908311 C31.9415233,3.84094401 31.8385868,3.89323877 31.7310411,3.88695113 L30.7662027,3.88695113 C30.5060957,3.87084864 30.2813253,3.69310778 30.1980542,3.43776823 L29.3424515,0.591920827 C29.2992795,0.490551795 29.3100341,0.373080269 29.3708742,0.281832804 C29.4271761,0.197604375 29.5186927,0.146827753 29.6166641,0.144097899 Z M59.3067835,2.43527298 L59.3067835,3.45157037 L65.2213351,3.45157037 L65.2213351,2.43864683 L59.3067835,2.43527298 Z" id="形状结合" stroke="#FFFFFF" stroke-width="0.5"></path>
                    </g>
                    <path d="M59.5213117,44.3634439 C60.4800046,44.3634439 61.4546758,44.0444612 62.061848,43.1034621 L62.1896737,44.1880034 L64.0111903,44.1880034 L64.0111903,33.0395568 L62.061848,33.0395568 L62.061848,37.3936712 C61.5984797,36.5802652 60.3042442,36.1336894 59.473377,36.1336894 C57.172514,36.1336894 55.4628449,37.5372134 55.4628449,40.2485666 C55.4628449,42.8323268 57.2044704,44.3634439 59.5213117,44.3634439 Z M59.6491374,42.5611914 C58.4028366,42.5611914 57.4121872,41.6201924 57.4121872,40.2485666 C57.4121872,38.8290935 58.4028366,37.9518909 59.6491374,37.9518909 C60.87946,37.9518909 61.9340222,38.8769409 61.9340222,40.2485666 C61.9340222,41.6680398 60.87946,42.5611914 59.6491374,42.5611914 Z M68.840606,47.4735256 L73.6500489,36.325079 L71.4929898,36.325079 L70.0549504,39.7700925 L69.2400614,41.9391751 L68.4890852,39.7222451 L67.2907191,36.325079 L65.0218124,36.325079 L68.1695209,44.0604103 L66.6995251,47.4735256 L68.840606,47.4735256 Z M78.3676171,44.3634439 C79.32631,44.3634439 80.3009812,44.0444612 80.9081534,43.1034621 L81.0359791,44.1880034 L82.8574957,44.1880034 L82.8574957,33.0395568 L80.9081534,33.0395568 L80.9081534,37.3936712 C80.4447851,36.5802652 79.1505497,36.1336894 78.3196824,36.1336894 C76.0188194,36.1336894 74.3091503,37.5372134 74.3091503,40.2485666 C74.3091503,42.8323268 76.0507758,44.3634439 78.3676171,44.3634439 Z M78.4954428,42.5611914 C77.249142,42.5611914 76.2584926,41.6201924 76.2584926,40.2485666 C76.2584926,38.8290935 77.249142,37.9518909 78.4954428,37.9518909 C79.7257654,37.9518909 80.7803277,38.8769409 80.7803277,40.2485666 C80.7803277,41.6680398 79.7257654,42.5611914 78.4954428,42.5611914 Z M88.1822361,44.4272404 C89.061038,44.4112913 90.2913606,43.9647155 90.7387506,43.0396655 L90.8346199,44.1880034 L92.6721147,44.1880034 L92.6721147,36.325079 L90.8026635,36.325079 L90.7387506,37.4096203 C90.2913606,36.6281126 89.284733,36.1336894 88.2301707,36.1336894 C85.9293077,36.1177402 84.1237693,37.5372134 84.1237693,40.2485666 C84.1237693,43.0077673 85.8494166,44.4431896 88.1822361,44.4272404 Z M88.4059311,42.6409371 C87.1116956,42.6409371 86.0731116,41.7477855 86.0731116,40.2485666 C86.0731116,38.7493478 87.1116956,37.8721453 88.4059311,37.8721453 C91.4737485,37.8721453 91.4737485,42.6409371 88.4059311,42.6409371 Z M97.6133779,44.2836982 C98.2045719,44.2677491 98.6679401,44.1720543 99.2271777,43.9487663 L98.6839184,42.2900561 C98.3963105,42.4335984 98.0447897,42.5292932 97.7412036,42.5292932 C97.1340314,42.5292932 96.7185978,42.162463 96.7185978,41.4128536 L96.7185978,38.0156875 L98.9076134,38.0156875 L98.9076134,36.3410281 L96.734576,36.3410281 L96.734576,34.108149 L94.7852337,34.3154878 L94.7852337,36.3410281 L93.3152379,36.3410281 L93.3152379,38.0156875 L94.7852337,38.0156875 L94.7852337,41.4128536 C94.7852337,43.3745974 95.9037088,44.3474948 97.6133779,44.2836982 Z M103.992681,44.4272404 C104.871482,44.4112913 106.101805,43.9647155 106.549195,43.0396655 L106.645064,44.1880034 L108.482559,44.1880034 L108.482559,36.325079 L106.613108,36.325079 L106.549195,37.4096203 C106.101805,36.6281126 105.095177,36.1336894 104.040615,36.1336894 C101.739752,36.1177402 99.9342137,37.5372134 99.9342137,40.2485666 C99.9342137,43.0077673 101.659861,44.4431896 103.992681,44.4272404 Z M104.216376,42.6409371 C102.92214,42.6409371 101.883556,41.7477855 101.883556,40.2485666 C101.883556,38.7493478 102.92214,37.8721453 104.216376,37.8721453 C107.284193,37.8721453 107.284193,42.6409371 104.216376,42.6409371 Z M112.385238,43.1832078 C112.385238,41.6680398 110.084375,41.6680398 110.084375,43.1832078 C110.084375,44.6983758 112.385238,44.6983758 112.385238,43.1832078 Z M113.827272,34.108149 C113.827272,35.623317 116.128135,35.623317 116.128135,34.108149 C116.128135,32.592981 113.827272,32.592981 113.827272,34.108149 Z M115.952375,44.1880034 L115.952375,36.2931807 L114.003033,36.2931807 L114.003033,44.1880034 L115.952375,44.1880034 Z M121.612658,44.3634439 C124.169172,44.3634439 125.719059,42.5292932 125.719059,40.2645158 C125.719059,38.0156875 124.10526,36.1655876 121.59668,36.1655876 C119.0881,36.1655876 117.522235,38.0156875 117.522235,40.2645158 C117.522235,42.5292932 119.056143,44.3634439 121.612658,44.3634439 Z M121.612658,42.5771406 C120.190597,42.5771406 119.471577,41.460701 119.471577,40.2645158 C119.471577,39.0842796 120.206575,37.9359418 121.612658,37.9359418 C122.922872,37.9359418 123.753739,39.0842796 123.753739,40.2645158 C123.753739,41.460701 123.034719,42.5771406 121.612658,42.5771406 Z" id="dydata.io" fill="#FFFFFF" fill-rule="nonzero"></path>
                    <g id="左侧叶子" transform="translate(0.000000, -0.000000)" fill-rule="nonzero">
                        <path d="M6.98658775e-14,30.2302084 C3.48140738,42.086858 15.1983559,49.5571883 27.4393591,47.7242644 L27.4393591,47.7242644 L27.4439682,47.7242644 C20.2837303,45.7844506 14.1842001,41.0934108 10.4787904,34.6775638 L10.4787904,34.6775638 C9.54713752,33.0754424 8.78002953,31.383147 8.18945009,29.6269016 L8.18945009,29.6269016 C7.42940939,29.5572775 6.66767869,29.5224655 5.90671616,29.5224655 L5.90671616,29.5224655 C3.91927195,29.5224655 1.93612956,29.7594022 6.98658775e-14,30.2302084 L6.98658775e-14,30.2302084 Z" id="Clip-23" fill="#16949B"></path>
                        <path d="M19.1377542,14.8935799 C29.5471008,21.6198216 34.3235119,34.3510666 30.9012546,46.2480491 L30.9012546,46.2480491 C37.5663215,40.6255183 41.407546,32.3546641 41.3983609,23.6439817 L41.3983609,23.6439817 C41.4057024,14.3528428 37.0411913,5.59784027 29.6120892,-4.35867047e-15 L29.6120892,-4.35867047e-15 C24.6448614,3.74789377 20.9813945,8.95712719 19.1377542,14.8935799 L19.1377542,14.8935799 Z" id="Clip-25" fill="#5EB659"></path>
                        <g id="Clip-27" transform="translate(8.540058, 12.887056)" fill="#14A477">
                            <path d="M1.70074951,17.0276971 C2.21066969,18.350862 2.82306553,19.6321604 3.53240613,20.860244 L3.53240613,20.860244 C7.00828259,26.8683144 12.7271011,31.2572408 19.4373371,33.0659343 L19.4373371,33.0659343 C19.7645833,33.1620891 20.1105731,33.2444419 20.4516465,33.3243409 L20.4516465,33.3243409 C20.4951257,33.1849393 20.5316913,33.0433908 20.5705613,32.9038358 L20.5705613,32.9038358 C23.6305433,22.3456607 19.7790251,11.0021439 10.9181827,4.47679999 L10.9181827,4.47679999 C10.6456312,4.26900114 10.3641688,4.070097 10.0757927,3.884995 L10.0757927,3.884995 C7.373477,2.04501671 4.34944604,0.727065934 1.16040928,-2.17933524e-15 L1.16040928,-2.17933524e-15 C-0.554176177,5.57882399 -0.364281229,11.5683383 1.70074951,17.0276971 L1.70074951,17.0276971 Z" id="path-1"></path>
                        </g>
                    </g>
                </g>
            </g>
        </g>
    </g>
</svg>